<mxfile host="app.diagrams.net" modified="2023-09-05T16:51:51.205Z" agent="Mozilla/5.0 (X11; Ubuntu; Linux x86_64; rv:109.0) Gecko/20100101 Firefox/115.0" etag="AgWTNHatC_EK9hElNYad" version="21.6.6" type="device">
  <diagram name="Page-1" id="j4Z-1hVTGUH03rZK-Eri">
    <mxGraphModel dx="1703" dy="994" grid="1" gridSize="2" guides="1" tooltips="1" connect="1" arrows="1" fold="1" page="1" pageScale="1" pageWidth="850" pageHeight="1100" math="0" shadow="0">
      <root>
        <mxCell id="0" />
        <mxCell id="1" parent="0" />
        <mxCell id="F6PmQPHUVYmeMzWtfu4V-12" value="" style="rounded=0;whiteSpace=wrap;html=1;" vertex="1" parent="1">
          <mxGeometry x="8" y="538" width="322" height="160" as="geometry" />
        </mxCell>
        <mxCell id="F6PmQPHUVYmeMzWtfu4V-16" style="edgeStyle=orthogonalEdgeStyle;rounded=0;orthogonalLoop=1;jettySize=auto;html=1;entryX=1;entryY=0.5;entryDx=0;entryDy=0;startArrow=classic;startFill=1;" edge="1" parent="1" source="F6PmQPHUVYmeMzWtfu4V-1" target="F6PmQPHUVYmeMzWtfu4V-12">
          <mxGeometry relative="1" as="geometry" />
        </mxCell>
        <mxCell id="F6PmQPHUVYmeMzWtfu4V-1" value="" style="shape=image;verticalLabelPosition=bottom;labelBackgroundColor=default;verticalAlign=top;aspect=fixed;imageAspect=0;image=data:image/jpeg,/9j/4AAQSkZJRgABAQEAYABgAAD//gA7Q1JFQVRPUjogZ2QtanBlZyB2MS4wICh1c2luZyBJSkcgSlBFRyB2NjIpLCBxdWFsaXR5ID0gOTAK/9sAQwADAgIDAgIDAwMDBAMDBAUIBQUEBAUKBwcGCAwKDAwLCgsLDQ4SEA0OEQ4LCxAWEBETFBUVFQwPFxgWFBgSFBUU/9sAQwEDBAQFBAUJBQUJFA0LDRQUFBQUFBQUFBQUFBQUFBQUFBQUFBQUFBQUFBQUFBQUFBQUFBQUFBQUFBQUFBQUFBQU/8AAEQgCWAMgAwERAAIRAQMRAf/EAB8AAAEFAQEBAQEBAAAAAAAAAAABAgMEBQYHCAkKC//EALUQAAIBAwMCBAMFBQQEAAABfQECAwAEEQUSITFBBhNRYQcicRQygZGhCCNCscEVUtHwJDNicoIJChYXGBkaJSYnKCkqNDU2Nzg5OkNERUZHSElKU1RVVldYWVpjZGVmZ2hpanN0dXZ3eHl6g4SFhoeIiYqSk5SVlpeYmZqio6Slpqeoqaqys7S1tre4ubrCw8TFxsfIycrS09TV1tfY2drh4uPk5ebn6Onq8fLz9PX29/j5+v/EAB8BAAMBAQEBAQEBAQEAAAAAAAABAgMEBQYHCAkKC//EALURAAIBAgQEAwQHBQQEAAECdwABAgMRBAUhMQYSQVEHYXETIjKBCBRCkaGxwQkjM1LwFWJy0QoWJDThJfEXGBkaJicoKSo1Njc4OTpDREVGR0hJSlNUVVZXWFlaY2RlZmdoaWpzdHV2d3h5eoKDhIWGh4iJipKTlJWWl5iZmqKjpKWmp6ipqrKztLW2t7i5usLDxMXGx8jJytLT1NXW19jZ2uLj5OXm5+jp6vLz9PX29/j5+v/aAAwDAQACEQMRAD8A/VOgAoAKACgAoAKACgAoAKACgAoAKAEoAKACgAoAKACgAoAKACgAoAKACgAxQAUAFABQAUAFABQAUAFABQAUAFABQAUAFABQAUAFABQAUAFABQAUAFABQAUAFABQAUAFABQAUAFABQAUAFAAaACgAoAKACgAoAKACgAoAKACgAoAKACgAoAKACgAoAKACgAoAKACgAoAKACgAoABQAtABQAUAFABQAUAFABQAUAFABQAUAFABQAUAFABQAUAFABQAUAFABQAUAJQAUAGKACgBaACgBDQAZoAM0AGaADNABmgAFAC0AFABQAUAFABQAUAFABQAUAFACUAFABQAUAFABQAUAFABQAUAFABQAUAFABQAUAFABQAUAFABQAUAFABQAGgAzQAZoAM0AGaADNABmgAzQAZoAM0AGaADNABmgAzQAZoAM0AGaADNABmgAzQAZoAM0AGaADNABmgAzQAZoABQAtABQAUAFABQAUAFABQAUAFABQAUAFABQAUAFABQAUAFABQAUAFABQAUAJQAUALQAUAFABQAhoAT/PWgBf89aAE/wA9aAD/AD1oAX/PWgAFAC0AFABQAUAFABQAUAFABQAUAFABQAlABQAtACUAFAC0AJQAUALQAlABQAtACUAFAC0AJQAUALQAlABQAtACUAFAAaAEoAKACgAoAKACgAoAKACgAoAKACgAoAKACgAoAKACgAoAKACgAoAKACgAoAKAFFAC0AFABQAUAFABQAUAFABQAUAFABQAUAFABQAUAFABQAUAFABQAUAFABQAUAJQAUALQAUAFABQAUAFABQAUAFABQAUAFABQAUAFABQAUAFABQAUAFACUAFABQAUAFABQAUAFABQAUAFABQAUAFABQAUAFABQAUAFABQAUAFABQAUAFABQAf56UAFABQAf56UAFABQAf56UAFABQAf56UAFABQAf56UAFABQAf56UAFABQAf56UAFABQAf56UAFABQACgBaACgAoAKACgAoAKACgAoAKACgAoAKACgAoAKACgAoAKACgAoAKACgAoAKAEoAKAFoAKACgAoAKACgAoAKACgAoAKACgAoAKACgAoAKACgAoAKACgAoAKAEoAKAFoASgAoAWgBKACgBaAEoAKAFoASgAoAWgBKACgBaAEoAKAFoASgANABQAUAFABQAUAFABQAUAFABQAUAFABQAUAFABQAUAFABQAUAFABQAUAFABQAUAAoAWgAoAKACgAoAKACgAoAKACgAoAKACgAoAKACgAoAKACgAoAKACgAoAKACgBBQAUALQAUAFABQAUAFABQAUAFABQAUAFABQAUAFABQAUAFABQAUAFACUAFABQAUAFABQAUAFABQAUAFABQAUAFABQAUAFABQAUAFABQAUAFABQAUAFABQAUAFABQAUAFABQAUAFABQAUAFABQAUAFABQAUAFABQAUAFABQAUAFABQACgBaACgAoAKACgAoAKACgAoAKACgAoAKACgAoAKACgAoAKACgAoAKACgAoAQ0AFABQACgBaACgAoAKACgAoAKACgBDQAUAFABQAUAFABQAUAFABQAUAFABQAUAFABQAUAFABQAUAFABQAUAFABQAUAFABQAUAFABQAUAFABQAUAFABQAfnQAfnQAfnQAfnQAfnQAfnQAfnQAfnQAfnQAfnQAfnQAfnQAfnQAfnQAfnQAfnQAfnQAfnQAfnQAfnQAfnQAfnQAfnQAfnQAfnQAfnQAUALQAUAFABQAUAFABQAUAFABQAUAFABQAUAFABQAUAFABQAUAFABQAUAFACGgAoAKAAUALQAUAFABQAUAFABQAUAIaACgA/z1oAKACgA/wA9aACgAoAP89aACgAoAP8APWgAoASgA/z0oAKACgA/z0oAKACgA/z0oAKACgA/z0oAKACgA/z0oAKACgA/z0oAKACgA/z0oAKACgA/z0oAP89KAF/z0oAP89KAD/PSgA/z0oAP89KAD/PSgA/z0oAP89KAD/PSgA/z0oAP89KAD/PSgA/z0oAP89KAD/PSgA/z0oAP89KAD/PSgA/z0oAP89KAD/PSgA/z0oAP89KAD/PSgA/z0oAP89KAAUALQAUAFABQAUAFABQAUAFABQAUAFABQAUAFABQAUAFABQAUAFABQAUAFACGgBaAEoABQAtABQAUAFABQAUAFABQAhoAKACgAoAKACgAoAKACgAoAKACgAoAT/PWgBf89aAE/z1oAP89aAF/wA9aAE/z1oAP89aAF/z1oAT/PWgA/z1oAX/AD1oAT/PWgA/z1oAX/PWgBP89aAD/PWgBf8APWgBP89aAD/PWgBf89aAE/z1oAP89aAF/wA9aAD/AD1oAP8APWgA/wA9aAD/AD1oAP8APWgA/wA9aAD/AD1oAP8APWgA/wA9aAD/AD1oAP8APWgA/wA9aAD/AD1oAP8APWgA/wA9aAD/AD1oAP8APWgA/wA9aAD/AD1oAP8APWgA/wA9aAD/AD1oAP8APWgA/wA9aAD/AD1oAP8APWgA/wA9aAAUALQAUAFABQAUAFABQAUAFABQAUAFABQAUAFABQAUAFABQAUAFABQAUAFACGgAoAKAAUALQAUAFABQAUAFABQAUAIaACgAoAKACgAoAKACgAoAKACgAoAKACgAoAKACgAoAKACgAoAKACgAoAKACgAoAKACgAoAKACgAoAKACgAoAKAD86AD86AD86AD86AD86AD86AD86AD86AD86AD86AD86AD86AD86AD86AD86AD86AD86AD86AD86AD86AD86AD86AD86AD86AD86AD86ACgBaACgAoAKACgAoAKACgAoAKACgAoAKACgAoAKACgAoAKACgAoAKACgAoAQ0AFABQACgBaACgAoAKACgAoAKACgBDQAUAH+etABQAUAH+etABQAUAH+etABQAUAH+etABQAlAB/npQAUAFAB/npQAUAFAB/npQAUAFAB/npQAUAFAB/npQAUAFAB/npQAUAFAB/npQAUAFAB/npQAf56UAL/npQAf56UAH+elAB/npQAf56UAH+elAB/npQAf56UAH+elAB/npQAf56UAH+elAB/npQAf56UAH+elAB/npQAf56UAH+elAB/npQAf56UAH+elAB/npQAf56UAH+elAB/npQAf56UAAoAWgAoAKACgAoAKACgAoAKACgAoAKACgAoAKACgAoAKACgAoAKACgAoAKAENAC0AJQACgBaACgAoAKACgAoAKACgBDQAUAFABQAUAFABQAUAFABQAUAFABQAn+etAC/560AJ/nrQAf560AL/nrQAn+etAB/nrQAv+etACf560AH+etAC/560AJ/nrQAf560AL/nrQAn+etAB/nrQAv+etACf560AH+etAC/560AJ/nrQAf560AL/nrQAf560AH+etAB/nrQAf560AH+etAB/nrQAf560AH+etAB/nrQAf560AH+etAB/nrQAf560AH+etAB/nrQAf560AH+etAB/nrQAf560AH+etAB/nrQAf560AH+etAB/nrQAf560AH+etAB/nrQACgBaACgAoAKACgAoAKACgAoAKACgAoAKACgAoAKACgAoAKACgAoAKACgAoAKACgAoAKACgAoAQ0AFABQAf560AFABQAhoAKACgAoAKACgAoAKACgAoAKACgAFAC0AFACf56UALQAUAJ/npQAtABQAn+elAC0AFACf56UALQAUAJ/npQAtABQAn+elAC0AFACf56UALQAUAJQAUAFAC0AJQAUALQAlABQAtACUAFAC0AJQAUALQAlABQAtACUAFAC0AJQAUALQAlABQAooAWgAoAKACgAoAKACgAoAKACgAoAKACgAoAKACgAoAKACgAoAKACgAoAKACgAoAKACgAoAKAENABQAUAFABQAUAIaACgAoAKAEoADQAhYA0AQy39tB/rZ4o/wDfcCnYAhvre4P7maOX/ccN/Kk9AJwc1NwFqgCgAoAKACgAoAKACgAoAKVwIp7uG1TfNKkSj+J2Cj9aYGcfFmjK21tTtFPT/XD/ABoaYF221K1vRm3uIpx6xuG/lS1Asg5oAKYBQAUAFABQAUAFABQAUAFABQAUAFAC0AFABQAUAFABQAUAFABQAUAFABQAUAFABQAUAFABQAUAFABQAUAFABQAUAFAAKAFoAKACgAoAKACgAoAKACgAoAKACgAoAKACgAoAKACgAoAKACgAoAKACgAoAKACgAoAKACgBDQAUAFABQAUAFACGgAoAKAKt/qVrpcPm3c8dvH/ekbFK1wOP1b4u6RZZW1El4/qo2r+Z5/StY02wOU1H4xajcZFssVqvqF3H9a29iZ3Oa1D4gandj97qMzD03bR+Qqo07BcxG8QGV8sxb3LVfIFy5b6oyLuimaNx0ZGwfzqHBBc2/Dnxg1PSLsQX1x9rtiQuZMFl59etZumUnc9u0bWYNcsI7q3fKtkEd1I6g1g9CjQpAAoAWgAoAT/PWgBaAEZgoyTge5oAqzajFCrEscKMk9qOW4HAeI/iqVka20hckHBuXGR/wEd/xraNK4Hnup6zcXMhkurl7iQ93bOPoO1UoGdz5t+PWjeMdW8Qw3ej6/JZaU0CoLdJHQCQE5J2+oI/KtVFBc8ZvfFHxU+GGNU07xBeusTbj5FwznA5zsbgj2p8qC59h/spftrt8VNFNv4kiVdRtCFmnhHDKR8smPTOc+nvmuaUbGh9c2N5Ff2yXEEqzQyKGR1OQRWQFigAoAT/PWgBaACgBP89aAFoAKAE/z1oAWgAoASgAoAKAFoASgAoAWgBKACgBaAEoAKAFoASgAoAWgBKACgBaAEoAKAFoASgAoAWgBKACgBRQAtABQAUAFABQAUAFABQAUAFABQAUAFABQAUAFABQAUAFABQAUAFABQAUAFABQAUAFABQAUAIaACgAoAP89aACgAoAQ0AFAHM+OvGlt4L0drqXD3LnZDD/AH2/wFNR5mJnznr3jK9126e5vJ2kkJOB/Cg9AOwrujGyMmY76wSOXz7VoSVZNY68jP1oAqy6uxBHHPvQAkOoEsPmoA1INVKJ1zWbLMu+1QSTHHr0FSho7Twp8d7D4V6aL/XpBFo82IZJmDYjkUgKTgHGVZR+ArKUbjPdvB/xg8K+OLSO40vVredH6FZAw/MZFZODLOxjnjlTcjq6+q8iotYAknSMZJp2Ap3eqrbxM+OAOPU0ctwPLPEPxoaK8kt9OeORkYqWXlFOecn+I/Tj61rGlcCtoWsa/wCMb3at/OEPLyISqxj6DHWm4JAej6XpsunWwiluprts5Lytn8h2rFrUbPP/AIkeNcXDaPZyYCDNxIDgk/3P8f8A9ddEVoZnm+s+DfGHxE0O+0zwZqFtouoBRv1S6VmWIH+FQP4j+g+tPmsB8T+KvHXxo/ZI+KVno3xJuZNc0K/O+O58wzQXMeSC0TnBRx/dPPTjnNJMs+oNP1rS/iD4Yt9Q064W80+8j8yOVevI7jsQeoPvWl7iZ574n0cwxXFrMnKj8x60Enmv7PqQ+F/iVremxAJvkbAHHyOm9f8Ax5WH41bQH0raftJ3HwT8d+HrLVCJfCWrCSK5ABL2zqy4lTHYBuV7j3rCULlI+09O1G11Oxgu7SdLi1nQSRSxnKupGQQfQiuZ6DLVACf56UALQAUAJ/npQAtABQAn+elAC0AFACUAFABQAtACUAFAC0AJQAUALQAlABQAtACUAFAC0AJQAUALQAlABQAtACUAFAC0AJQAUAKKAFoAKACgAoAKACgAoAKACgAoAKACgAoAKACgAoAKACgAoAKACgAoAKACgAoAKACgAoAKACgBDQAUAFABQAUAFACGgBKAPlf4u+Lm8SeMboJJm0sybeEA5Bwfmb6k/wAhXTSXKQ2cDPd8Y3frXXuZsoy3pBPNFhFY3hLdRSAryXp3Y3CgCxbXJ3DkUAX2uyF64/Gs2aWMW5vR5u+S1S/iRgz2kjlVmUHJQkdARxn3qBlLWfhd4m+Iv7N3iDSfD+mSXuvfaGezskuA7rH5qOIw7EbtqADPfGKd0gPimSX4ifB3XhFqmm694S1NTw0sc1nIfTGQNy/iRT5kyz7d/Yf+LXxb+LHimWxm1FZvDenosl9qFxbneM/djVlIBdsE8g8Ak1lO3QR995yBk7j6msk7hc8J/aC+J0uln+wNOcpK6Zu51PKqekYPvwT9QK1pxuFzzr4f+CPEnjiH7Vp0CR2Sy+UZ55Ni5HXA6nGa2k1HQLn1J4R8L2/hXRorOI75cDzpsYMjdyf88VzSbYXG+MNeTwv4avtSfGYUxGp/ic8KPzNJe8wcj5pgv5b69JLNPcSybj3LuTz+ZrptZEXPqLwR4aj8MeHra0AHnlfMnfH3pDyc/ToPYVxSepVjz/8AaV+AGhftD/DXUfDGsRKkzL5llfCMNJaTD7rr7diO4JFPmsUfmt+ydH40+Fvxz8SfCbxFbzutmHaVWyyLs+7MpP8AC4xz33Keua6Iu5LPr7XfCFnr8SxSlvNxhZEHI9vcVsok3PKof2atW0b4hL4l07V4ZYWijikt5oGjYlHLBgwJB4YjpRzDND43fCqbxl4bCrCV1GxLTWc2MgNjlD/stgA0LUZ3X7Anx4k1C0m+HOuTMLuyDvpzTt8wVW/eW5z3U5I9s+lck4jufa9ZDCgAoAKACgAoAKACgAoAKACgBaACgAoAKACgAoAKACgAoAKACgAoAKACgAoAKACgAoAKACgAoAKACgAoAKACgAFAC0AFABQAUAFABQAUAFABQAUAFABQAUAFABQAUAFABQAUAFABQAUAFABQAUAFABQAUAFABQAhoAKACgAoAKACgBDQBleKNXGheHtR1Akf6NA8gz6gcfrimgPiG/1JYEkuLmVUUZZ5HYADuSTXoJJGR5j4i+P3hXSbg2ttdS6veZ2iDT4/MJPpnpTbGh2kar8TPHLK3hz4dXq28n3LjUmMKkevSlcdjotT+GnxO8L6M+veM9d8I+C9EhK+bNeNJJjJAC8dSSQMD1qLhYluYpbBo0lmgut8ayJc2pYxTIwyrpuAYA+hGR0q4u5EizaSkkc1RJdkmynNZs1M0t+8PPGagD6k/Zl0/wAvwtFcMOZWmkz6/PtH/oJrCTGet+IfDOj+JtPktNa0y01OzYfNDeQrKhH0YGsVco5bwN4J8LfD6zubDwpo1rothPO1xJDaLtVnbqf06dB2rboJm3rerJoukXd9JysEZfGfvHsPxOKmJJ8n+IdIuNfvJru4JeeZzI7nqSa64KyA2vhV4A8TRfELw9cSeMdZsNBtPMkGh2sYa2mYDJDtj5Qdx68k4xjBrOTGfUXmk8nGfashHif7SPiX7NHpGkI5HmFrqQZ7D5VH57vyrSmtRM8h0PVntbiC6jOJIpFdfYgg/wBK62tCUfUPhP4y6Dr9lF9qu006+xiSK4O0BvZuhFec46mqOrvtd0610+S8mvIBbKu7zA4Ix7c81KV2M+XfEmo6brXjbVdbtLCG1ur/AGRS3CoBJJGgwgY9eB/niu+MbIiRq6eI4xuIHSh6Ekl3egg7TUFGNc6isfB+6RgjsaLgeNatpXhXQvi/Z6v4f1i00Xx6zpejTXmAW628Z2/wlgMcdfTkmpauB+hHhrX4fEujWmoQgqs6BihPKNjlT7g1yFmp/nrQAtABQAn+etAC0AFACf560ALQAUAJQAUAFAC0AJQAUALQAlABQAtACUAFAC0AJQAUALQAlABQAtACUAFAC0AJQAUALQAlABQAooAWgAoAKACgAoAKACgAoAKACgAoAKACgAoAKACgAoAKACgAoAKACgAoAKACgAoAKACgAoAKAENABQAUAH+etABQBS1XV7TR7N7i7mEMa9z1J9AO5oUQPL9e+L13NcC10i1PmSErEqp5k0h9l6D6ngd605bIDk/iTb+LLfwTc6hreqC3jkdI/sKPvZtx6MR8v4DP1q4bmbPgT4k3Vx478Xa5NqaXcngvwvCslxaWcmx7uVnCRx7sYBeRkXOOBz3roYkj6G+DfjHQZ/2afGPibwf4I0bQfFGiWxRI7ZGlUyMCIiJXG5vm6njpnpjOTdjSxZ/Zc1rU/CvxgufCN1BPqM9zHKb7V7y5eSe4nRSzvtztVAwIAAGOPxzeozsf22/hzqfji08E/wBnWl3fCC8ucQ2q7sXHkMYCw7c7wGP8RXvilFsVzw+zsrjRNPstNunLXNpF5cis+7Yck7c+2cH3zXXF3IkbNjJkA1QIvySDb7YrIZURsNmgD6f+H/xD8K/Cb4c6fe+KtbtdDshbxqJbpsBndiwUAAksS3AHJrnkmB3vj/xra2HhEz2NxHM93cLZxsnOGyfMH1CK/wCVQojMHw3rTsilm3Djk1ryiIPiJri3WgpaxuMTTgNj+6oyf1I/KtEgOM0nT4pZ1BG4DkiqZJ6X4SkghN0sbTB41RWUgiPDE4IOME/Kfp+NYsaOga6J59qkZ8m/tDeIDd/E28hz8tpBDABnpwWP6vXTTJOV0q9xGozWrA24bzaM5GazYBc62trAwUg56U0gY3RtQM0o3HrV2sZrc7K3v/3YAOazZqjxf9rT4meLfh78Lpb3wZbCXVpplie5ZN/2aLBLOB3JwAPTJrNjPmL9nz9s7xHe+IoNJ8aXIv7K5lWFrmSMLLbuTgHIwCue1QgOW/bV0/UvDfx5j8RCV47G/tLYxTq2PLdF25B+q5/GrA+0f2a/j94g8T/Cy21KD/S9aspBb3cYcxtOABh1PTJUg4xyQaV+bQD6W8BftFNrq+VJtkuo/wDWWlwpSZfoRwfyNTKnYpHqGk/E3R7/AAs0jWbn/nquVJ/3hxWLgM6m2vYLyMSQTJMh/iQgipAmBB//AFUALQAUAJ/npQAtABQAlABQAUALQAlABQAtACUAFAC0AJQAUALQAlABQAtACUAFAC0AJQAUALQAlABQAtACUAFACigBaACgAoAKACgAoAKACgAoAKACgAoAKACgAoAKACgAoAKACgAoAKACgAoAKACgAoAKACgAoAQ0AFABQAhOKAKer6vb6Jp815dNshiXcT6+gHvTSuI+evFPjO98UaiGCNJJI4jtrWM56nAX6+prr5FELnpvgXwXB4VszNOVuNVnUGe5I+7/ALCeij9ayk7gcD+0f4gij0Sz0sbnnluFmbB4RVDYz7kn9DVwRDPCvhz4V0lvC/jHQ769ttKn1iWK4iv7pcxq0bxuuQOThozx/tdq2krDTOw8HWvwv+E3ww13wXDq9xrSawkq3txb2/zsXTaCuThdv8J9RniseVzHzGXo/wAY9A8D3Et9oHhiO61yeFYLrWr9wstyFA5ZEGBnAyAecVahYXMYfij4/eMPE1vLbtqIsbaQFWjs18skHtu+9+tUoJGdzzpZd0vXvmtANvT2+Xr3pFo0GOU/SshlY9xSA0/j/wDF7RfhPqHgi513SY9TsrZUIMyl0hlwPLYoSFyCpwT0JBp2A574K/E/xd8WviDLda5bQ6To1hBI1hp+msVs5C7geftJJMhQsCx+nGKSVgPqFdWWxtCQ2OOO3+e1Ngc7eeIBd6bYSMwPmtM/Xt5hUf8AoFaJCuaegXXnWksi8Hdjk9KzYkrnpmgz+XoltnGSOfesWXYum5AGM9OKkdj4m+Muq+f8VfEpJyRdlB+Cgf0rqpmZf8FfDTxH8Vre5stC1WPQo4UUz6k0IlePdnaqKeNxweT0x0NOUrAtTiviJ+zj8ffhQ/8AavhvxUPiHp6vufTr22CTMvcKR3qHK47CW3jKbVdNtZ7m0m065kQGW0uBh4nyQVI9q0UiGzqvDmp7tpLH86tu4kdpaajkDnH41kzRCagLXU4JLW8RZLaZSjhhkYNQ1cZ+ZXjD4cS6f+0dq/h7SoGeLz2cJCucL1X6cmptYD7F+O3wNf4x/DC00kSx23iCxhRre4lGVZgoDRsewPr2xmmBt/BDwFH8D/h/JHrF/CjJHHLd3DuBEgSPBJJ7Z3VWgGj4i8RRa9pEfiPw1qFrfg5ktdQsmDFGUbmQ7cEkBS2CCxG8D5goLuF7Honwq+J6eONDLyBbfVbN/JvLcMCFfswx/Cw5B/8ArVLQcx6Rp3iS5sJBJbXElu/rG5Ws+Uq52uj/ABdv7bat0iX0YHUnY/5jis5RsB2uk/E7RtRwsztZSHtP93/vrpUWYzqYLuG5QPDIkqHoyMCPzFICUHNJMApgFABQAtABQAUAFABQAUAFABQAUAFABQAUAFABQAUAFABQAUAFABQAUAFABQAUAFABQACgBaACgAoAKACgAoAKACgAoAKACgAoAKACgAoAKACgAoAKACgAoAKACgAoAKACgAoAKACgAoAQ0AFABQA1uKBHhPxy8bebqq6PA+YbQB5QDwzkZA/AfzrppRM2yj8ENCGsahc67cLuitCbe2J/56EDew+gIH4mtJMs9o+VVZj0AJPtxXM3caPmr43StdWMWpSHLXV4QPZAhCj8gK6IEM8PupsfzrZiKE03BotYCjJN1pgV5JuaCBIZcsMUAb2nSEqKRojWL/KKyGQZ+YE8gEUARftM+Grfxbo17HNb/a0S0TdF1JAGcj3GaAPNf2C/E8+tW/iKCdpGGlTLaoZABnOWJ/Hg47HNAH1prmqeXbZXo20Yz7rQJnFz6uYdG0JTjm0dsj/rtLWiEd94JvA+ihiQcucms2NHc+FfEcOoaIhS7tbgxSNGy20gfymGPkfHRhnkdsisWaGlJq4UE7/f9KQHxH8Yr4x/FbxKoOSb5m/MAiumnsZs+gP2Q9VWSDxNbnglLdwPb94DWdQSPoyJhKwU8jNZXKPzt+O+qrD8afFUWAirfuqqowO1dKMiTwxqm6NSWI960A7rT9QDjGeazZojG8f/ABV8N/DPTIr7xHqSWEMr+XEpBZ5W9FUdfftUjKPw98W+CfiHd3Wv+HfsVzqO1FuJ/ICXIAzt3ZGcDnHNJgfPv7SX7SfjPwV8Vz4e8OzJp1jYwxySM0KMbl2XefvA8AHGBjvUgdD8VviTN8Xv2O/EmsWCfZ79BDHewxnhSk8RfH+yVwfoTU3A8y/Yd8bXNzrl54Wlnb7FqcXmRj/n3uovmRx6dD9cCri7iZ9GRyz/AAu+JOm6oUMOm6gy2N2ueAHz5eR6I8ciA/3RGO9UI+iIr4jAyM+5qrFHleg/tceAdU1m80yfUJdLntrh7dnvo9sbFWKkhgTjkd8UnFML2PYtI8UWer2yXFlex3kDDKyQSB1P5Gp5BXOg0vxLd6e+62uJIGz1RsfpUOIXO20f4u6lbbVvFjvU6bgNj/pxWTiUmdtpXxM0fUgoeVrOQ8bZxgfmOKnlKOoguEuUV43WRDyGU5B/GpAkoAKACgBaAEoAKAFoASgAoAWgBKACgBaAEoAKAFoASgAoAWgBKACgBaAEoAKAFoASgAoAUUALQAUAFABQAUAFABQAUAFABQAUAFABQAUAFABQAUAFABQAUAFABQAUAFABQAUAFABQAUAFACGgAoAKAKupXiadYXN3IQI4ImlYnoAoyf5UrXaA+HfE3ittT1W9vJ2/1sjSuSfXmvRirIzZ9NfCvTDovgHRYWG2WSBbiQf7T/Mf54/CsJDIvij8TPDvw58Po3iDV7fSP7Uc2do1ySFkkOARuxgcHqcClHcDyH45XCN4S0gIFJN4cOD2EZ/nn9K3RDPBLqfPNaDM6SXk0EsqSyj1oEVZJBnrQUOtpQH60AdBpr8CkM2h92siiByVJIGaQHQ+Lb5Zr0sw4MScf8Bq0B438ANLh+HXxM8e6dFmK3vZLe9h4wCjBgfyKkfhSsB73qWsCWAHIwqgj2AIP9KaEzg9f1o2mk6GOhWCVCc9xM5/qKYjpvBHj5YdDEZkx85HBqbFHZfDLUrK08N3d1YxiCW7vZJ7kgkhpeFLY7cKM+p5pWA6Z/EZI5k/CjlA+TvjjdmL4oanN2uEimGfdAD+oNWSepfsveK10zxRPCX+W6tNvPqpBFS1caPq+x8QoCvzDA75rJoZ+dP7TN79l+NnihgQN18XGPRlU/1ransJieDNV8y1Q54xVojqeiaRqGTjJxioZaOy+MXwX0T4mfso6o9xBG+oxpNeRXOBujkQ8AHtwv61nIZ+c/7JniC90f4r6VBbu2ySf7FOo6MjHAz9Dz+FTFXA7j9uuwk0jxp4e1tLZtk0W3zdvDsp+6T64PT3oaA9b/Zo+G2/4UeItM1a3mj07W3KeVJw4QxhT+Iz+Yp2Ar/s5fsv6h8I/Fd9qOqXkNykdy5tGhPLpgqrMOxweR7UbAel/Fi+0jx94H1r+xr211G90qCZZxbSh3hdQsqggdMNDj8a0TA7rwV4jGueFtJ1EtuNxbRyE+5UZ/XNNgcn4w+C3hHxlPNLf6RA00jFhcRDZICTk/MMHqahAeZXP7NGq+E7lr3wN4rvdJlzkQTOdpP1XH6g0wL1n8YvjJ8NWCeI/D8PiXT063VuMyY9yv8AVaAPQvB37Y/gnXpFt9Tkn8PXveO9QlQf99eB+OKTVwPatC8Yafr9qk+nahbX0DDIe3kDj9KmwHS6V4lutMkD2tzJA2f+WbkfmOh/Gk0B3OkfF++hKpdxRXidN33H/qDWTiUjtNK+JWi6lhZJzZSn+CcYH/fXSs3EZ1MNxFcIHikWRD0ZTkUAPyPWgAoAKAFoASgAoAWgBKACgBaAEoAKAFoASgAoAWgBKACgBaAEoAKAFoASgAoAUUALQAUAFABQAUAFABQAUAFABQAUAFABQAUAFABQAUAFABQAUAFABQAUAFABQAUAFABQAUAFACGgAoADwKAPOvjt4qt/Dnw91BJJAs96ht4kB5bP3v0zz71pTV2Jux8H6vqnns8Af5rh1hAz3Y7f6/rXa9EZt3P0GjRLdUhjwEQBFA7ADH9K5WzSx41+014Q8R+LNE0SPSb2yGjhpYdR0+8Q4ut+0Id4BwFw+R0bd7CiJL0PNPidZto3grwzpcTeZa2cYi3nPLKGjyc88hT1roRG54/cT5PX9a0GUZZs5oJZTeYetAivJNzQO4sM2XoHc6DTZeV57UhnRxNlM5rIoytZ1GeyKiDT7m+UI087W4XEEKlQ0jZI4BdRgZJzwKTAh8Ta55d2hJ5MMZ65/hq0BwH/AAkLW3jy0uMxeW9o8JcffyHBAPqACx/OtBXPTLfxCLm3ALD5hg4PUH/JpCOS+ImotF4fspQSPLupIyQem5Qw/wDQTSsBwXhzxnJCl1biT7pDjJqh3Pbvgj4pOoaRrFpv3NBOJgAf4XHH6g0gud+dRLKRux25FKwXPCv2goduraTqIGFkha3ZvdWyP0aiwjL+Hvi2bw9eWmoRMS8LZwOMjuKdgPb779pi0ttOMlvaSSXWOIy+FBqXG47nyX8RPEV34n8Q32qXsm+5uZDK5HTJ7D2AGKcVyiNHwBqxaLyy/Ix3pisesaNe5xgg8VDHc9HHjvVIvhd4k8MWkaXLX9vILUyvtEcjLjBPPB61DVyj5+/Z5/Zm/wCFXN/bOu3UN1rLt5wigBMcJxwNx64BPNEVygd3cfE74ZePdcXwtd32l63dQzAxwXMYli85TxsZhtLA+lN6gUP2ifire/C7wxpdroJtrbVdVuPs1vJMo8uBVGWbb09AM9yTzSbsBi/Af44at8SvC3ibS9XRY/E+kwSjegC+b8rKDtHQhgM49ah6gfNf7Hniq7034tLpl1I0kOrRzadeRSE4cyD5Wb3B7+9EWB9ofAySWD4a6ZZXD+ZPYmS0cr6o5Uj8+K1A7vTb9rk3ImRI/LmZF2knIHTPvSsBoqqt24+lAA1ojrghSPpQBx/ir4TeFvFyMNT0W0uZD/y2EYEg9ww5B/Gi6DR7HlupfsyXGh3ZvvBfijUdBuB0QuzqfbIIP55oK5WPtvib8avhgVGr6TH4wsE6yw/NIR67lGf/AB00PUk9C+Hf7X/hfxjqsOkajDc+G9XkYIsV/wARl+m3ecYPscUrDPeINUIIIYY7YNJxHc2tK8VXumOGtbmWA/7DEA/h0rOwXO20j4w3tttW9gS7QHBZTsb/AANS43C56J4Z8Y2HihJPspZZYxl43GCB6+9Q42C5u1IxaACgAoAKACgAoAKACgAoAKACgAoAKACgAoAKACgAoAKACgAoABQAtABQAUAFABQAUAFABQAUAFABQAUAFABQAUAFABQAUAFABQAUAFABQAUAFABQAUAFABQAUAIaACgBD0oWoHx9+0n4zOteKr21Ry1vp4Nuq54Dfxn8+PwrqhGxEj5ck1UR+JdNeRhtF/bZHt5q1vLYk/SaW+USSEHqf8a5GanE/F7xhpOg+E7GTUtTtNP33SLF9qnSLe3Iwu4jJ5HA9acCJHjPxSvY7vwdabWG5GJHOc4lcfyNdCJPDLqbDGtAKDzZzQSytJMMmgRVknwaAFhny9AHRadNyPpSNEdXaNvizWYzF8Q2NvdyRvMH3QklSkjJwcZU7SMqcDKnIOORUgcf411B/NtH3fftkP5ZH9KtAeUa3rhs/Fnh8l/kku2ibPTDRsP61oSew6PM5VQT/wDX/wA/1oAs+M9Nl1DwXqSqCXjQXK/70Z/+IZqAPnSPVzZaqjHO1sq1AHsvwG8UCx8ci0Zx5V/EYDn+8PmT+TD8aAPoSVjDIyHsaAOB+Muktq3gy6kVd09ky3Kj1A4YZ/3ST+AoA8R8OX52tCeKANKeTarL7UAcRrJL3EvcelAEPhbUjZagF6KxxmgD2HQdSBI5GPrWbA7zSL1WReecVJRtX9m2s6NfWMcjQvc20kQdTgqShGRUSdgPzOsoG07UdRsoHZb3TrndHJHw23cQT+B2n86m4H01+1ba33iP4H+DvFDqfOtGikuX2/c8xQNx/wCBY/E1bAo/sQaPq2razqfie+y8d1A6vKVCiRmcY6DH8JpRV7gdx8Nv2VJvA/xs1jxMbqF9De4FxYRqx8xcksVYY7E4GM5GPWnFage/f2LDoc1y1uoSG7ne6YDtI2Nw/EjP41QGXqN1JbaVrEsbFGSKVlKjoRHkUAeKfC/4va9e/FRfCM1351nJBNMr7AGhKnKrg5DAgH0PvQB7novi66uNevdKurdR5ADJcx/dkHXBB6HmiSuElzHTx3KsOay9m0YeznvEkwrqdvzZo5+UXNUjoyN7VW4I4961Og84+K/wV0n4h6TKjW8VvqiKTbXqDayN23EdRnFAGh+zt4u1XUfB8mi65IZNY0OX7JLKxyZI+sbH3x8p/wB2gD12O+J7miwFqK+I7miwHR+FPGlx4X1A3UASQuhjKydMEg/zFZtAeoeGPjhpOukJOpt3JI3RsJEGOOccj8RWUqbRZ6HYahb6nbrNbTJPEejIc1klYCxTAKAFoASgBHYIhYkKAMkntQByOrfE/RdLkaNZnu3U4IgUEA/U8U1HmA88u/2yPhtpeqPYajrAs5lYo2cMEYdQ2Ohp+zYHrnhjxVpPjLSYdT0XUINTsJhlJ7dwyn8RUga9ACUAFAC0AJQAUALQAlABQAtACUAFACigBaACgAoAKACgAoAKACgAoAKACgAoAKACgAoAKACgAoAKACgAoAKACgAoASgAoAKACgAoAKAA0AFAENzMLe3llPRFLflQB+bnjvxIb/WdQZmBaed2P1JJrvhsZs8Q8UajJbI8yHLxESr9V5FaCP0Ug8ZRX9lBdxMCtxGsq47hhkH9a52jS54h+1l4av8A4meAbD+zZbGNtJuZp7iW+IULC0WGwx6Zxg+oJogrCvc8ynmWDwb4Xs01ZdQTT41t2uI3JjuGaJCSpPUbg4B7itRHP3VziQjNWSUJbjjrQSyrJcnHUUCK7T8+tABHcBTnpQNG9p13ypzSKOw069/dEEisyihrd2GDnd0FSykeffEC4Edjozg8GB0OfaRv8K3iQzwr4m3ElsNOuEOHju1dD7gZpsR9R+DBFreh2GowndFdQJN7DIGR+ByPwqEB32kWEcitDMgaORCCp6EdCPxBqgPjH4leG5fB/ijUdJkDZtpMIx6tGeUP4g/zqAIPC/imXTbu0vYX2XFq6yDnuCCP1FNAfbuj+IrTxVoNjrNnKskNzEHIQ/dPce2DkVQCzstxE8TruVwUdT3B4IoIPmHWtJl8J+JrmyfJRJD5bn+JCcqfy/XNA0bOnyafdalp8ep3X2Ozmnjheb03HA/Pp+NBR9Car8DPCGr6HJaw6cttKyfu7yJj5gbGQSe/uDQB8ca1o134Y165sLqIxXNrM0Tr2yD1HsRyD6EUAdr4c1UiJMkjikB6Homr7tvzZrIo7WwvS6fKxDEYyKTVwPmPwr+x9rD/ABT1PWNd1G1Gjea8kMlu+ZJ9xzyuPlxz+PtU2A+hvFHjvwJoLx+Ete1GwgNzCIRps4LqYj8oDgAgA474pgUPip44sfgX8IrzVdDsLSJbeNIbC2iXbCZHwqEgdVA569BRewHB/sr/ALSOqfFS/utF8QmB78Qm4t5oY/L3qD8ykZxxkY/Gi4H0zLB9tsJIh99fnj+oqgOJ1N92h612IimBHofLOaAPnrwFosmiftSyhlwstiXTHcFD/XNAH0fbqF152HDFTn8qANeScxlB1LHAoGTx3cigc0COcs/iJLe+PdT8N21vFI+nW0VxO7OVYeZnaBwQc4P5UXA1rDx/o2papNpovYhqMLmKS23qzBh1HBouBxVrrOneCvjhd21xdw2kWv2CNCkjbfMnR9uB7kE0AeuLPigCwt3gUAWEvDigDlvFdo2myLqtgCjSSAXCryCzcK2O2fu8cbivq2QDtfhV8a7/AEqRbSSfcrAOhlOVYYzg+qkZII7c8blBmUbjPoJPjBZyaC2ppaNtVxD5bONxl4ymAM8DnJ4xg96wcB3MG/8AjpdxLuh02BUH9+Qk/wBKORoZ0Phz4nXHiDT5JP7HlScLlGz+6c/U/wD16nlAx7+z8W61M8supy2ULf8ALO2IjUD+f61qoIDzSe+mv9Rlj+33F1AG2l5ZWbd78npWnIiDgG+PngTUfFEnhjT/ABPZS61E5ia2UkZkHBUMRtYj0BpvQDxP40/s2eHPFCanq1mlxp2q3LtO09rMwIkPU4zjk84pAc7+wN8VPE3gDxZrOg3V4cRTNHJbMT5bSqAd2M8Bk/Ue1TKNwP1N8BePdM8f6Q95p8oMkEpt7mA/ehmX7ykfqD0IINc7jylI6Yc//qpDCgA/z0oAKACgA/z0oAKACgA/z0oAKACgBRQAtABQAUAFABQAUAFABQAUAFABQAUAFABQAUAFABQAUAFABQAUAFABQAUAFACUAFABQAUAFAAaACgCpqSGXTrtF+80TAflQB+TPjTVmtdfnXnMc4LgHnaHw36E13w2M2cb4hYNLIrDjOMVoI+kvgz45bWvhnobM5aW3h+ySknOGj+Qj/x0H8ahgS/FXT7rx58OPEehW6pJd3Vqfs8ch4Z15wPc9B6UJAfOHgbw7feEvBD+H9Zn/wCJrFeTXX2aKTcLYxspVMjgE/vmwPUdzTsO502pXQLhgRggEEd6oRnvd9s5/GgllaS696BFd7nnqDQAgusHtQNGvYXwXBzyPego3bXWwoI3Y/Gs7FFPUdUMwbBz260mgvY5f4ozPp+neH4nBDtCZPm64JJ/9mrVOxL1PAPH2o3Ot6xbWdlBLcpaqXk8mNnAY8c49sUpOwJXPon9nDxa1jav4M122udJ1hA13Z2uoRNDJJDn5tqMAcfxg9w2R0NTew2rHvMdwYpAY8ZHINUI8m/ac8Cf2/oEPimwj33NigjuVQZZoSeD/wAAJ/I0rAfI7Xr2c+9PyHcUbAe2fs0/EVtP8bLozzqdP1ZDG0U0uxY5BypX3PIx3z7UuYdj6guGeCZo35we1WRY81+LXhv+1bRdRt0zc2oO8KOZI+p/Ecn86BnlUtlBrukzWN1kK67SynkHswPqDgg+1Az1j9n348u8w8F+K5xHr1p8kM8hwLuPHyuM/Q1KYGv+0P8ADtNXt18TafGGuIl23aIOXTs/1Hf2x6U3oB4NpUzWzAH7vYZpXA7LSdTKEYP5VNh3O70TVzhfmznsTSGdlZagsgXnBPoaAPz/APjatxpnxo8XWWoytPdTztLFK5yyngqAfTaNuPTFZ3A9y8aRX/jH9jGKa4SW4uLGJZWJUljHG5Xcfopzn0FSwOE/YY8Kahc+Mo9a8uRLK2SYb9pCkEbcZ+p/ShK4H33ay7GBFagc34rs47WeZdgS2v1YsR6sMN+PP60AcfbeFbOPxNZa+QLrULW2a2WQnYWU8ZbsTjPp1oA7CKKNp0u96iQ5Vos8jigCe5DSCKSPlo3Dbc43DoR+VAE6sGHAIHvQB5P4IBH7RfxFJ/58tOx/37b/AOvUAYN34VFn8Z9K1NxiSbULoAjj5SpP8wD+FVFAbXxt06A61oOqvGrXFnc22xwBkfvh3/E1dhXPbxL8p5pDHrNjvSAmWfA60AMuNt9C0DMQsvyHHoeM/hnI+goA51tEMZSZFMLEiQsOPIYkHI9lO449IEHamnYDo79Nb1Xwvc2uk6pcaRczhTMbVVZpFXl4vmHRgdhxzk5zxQKx0Hwt8Oa744vdPsWtruDTtgMmoyQsE2AZzk4BJwBwe9E2rF3PrHT9HttNsYLS3jEdvCgRE64AFcj1A434z+Jh4V8HskDbbq/kFrGVPzKpBLMPwGPxFXBOQrnlHw80dPEmswWTDdbnc0v/AFzUZI/Hp+NbT90SPg/9ub9mWP4beKJfHHgbTzpMSTGa4s7NSqL82d6YPBzz+OaxUirHoX7L3xwj+N/hCTT9SJbW7CPbcOT/AK5Ogf2I4B9+e+K1SuS9DH0v4K+L/Anxzvdc07TTf6JexRSmeCRcrIjEYKZzkqT2qwPbfhj8WZfhB+1ENIvWkt9D8VW9ssvmkrH5pJjSUdsqwCsewcZ7VlUVykffiHcoOMVyvQYtMAoAKACgAoAKACgAoAKACgBRQAtABQAUAFABQAUAFABQAUAFABQAUAFABQAUAFABQAUAFABQAUAFABQAUAJQAUAFABQAUAFAAaAEoAaRlSPWgD8kf2gtKl8H/FrxDZOu3yL6UqD3QsWX8MEV3w2M2cTr5FwVnQ5jkUOpHvWgjqf2ePFIstW1nw7JIQJT9vtx+AWQD8lP51AHvVveeRMk2eFIJz3HemgPHfjlFH4P8VWviHzo7az1BlIklIWNZ1GMEnj5lwcd/mqgMLWEWKKMxqyw7A0QbqFOcA/TlT7rQBgtclu5oJZG83NAhhmwOKAE8xjQNFu1nIOCaCi8Lhl5ByKgo3PBujyeK/Ednp4by4mbfPI3RIlILHP04+ppoTOO+NGujx58RLuHw8FextEWztWb7pVRgt75OcewFaJCKnw+8Z638GNa0jwlpnhu11HxZ4rv4Yo5b8kqITIu9jjnGA30GfSuebGih8QZo9E+P/ij4h6pevq/iKXUpp7GC3dns7KIMViDuMeYyoFGxcoPVulC1Q5H0F4K8W23jjw1Z6xZxtFHMpDRvkFHBIYe4yDg9x9CK0RJ0lvcKEeG5VZbWVSjq3KkdDkemDg//WqgPkT49/Bib4f6y99YI0ugXcjGBwd3kMefKY/yPce4NRIaPGSJ7S5SWCV4pY2DK6sQykdCD61Az7G+Dfx0tviPp9jousl7fxSisiylMRXIUZzkdGI7Y6j6VsSeg3gw7RvwQCMY7/5zQB5J4w8LNo14bu2AFpIfuj+A+n0oA8+8b+EZPEdpHdWMxs9csvntbpTgg9dpI7Hn86lqwHOw/tIfFiwsG0K4tDPPgwmR4dxIxjr3pXA6LRIb3+yLT+0cfbvLBm2/3qAN+wmdDyapgdZpOoGMrye1ZDR22l6iflOaBngfjH9nDxJ8S/jtfa/fz2lr4feRZ/tCzAu4A4QJ1zkcnpiiwH1HoOg2GkeHbfRYollsIoPs5ikUEOuMEMO4OT+dPluBoeHPD+l+FtOjsNIsINNs4/uw26BVHOf5mpasBvQvTAj13Tzq+izRLzPGDJF7sOcfjQB5nb6ntOMkEetAGhBqpyAGyBQBpW+rDgHP4GgDRh1RWGcAe1AHMWfhp9I+Jmp+J4cS22q2UNvcRr/rI5Ii+GA7qVYDjkEelSBX1/SpL/xr4eubVDIkNzLJL2KgoeSDz1NVETMv44/8edjt6+fB+P75asR6wJuv1pMoeJsgVADhPxTAdLdJHBIzOIkCks7dFHcn6daANu3h0/XpJEsry2vo5SwCwygnaWbtnP3Z856cjnpQBueGNPK3JhaMpJzIhI7nDYHvmf8ASgD0f4Lj4kwfEDxIniLXtJv/AAJHDENEs7XTxBPDnnazAY+UfL3zweOa52mB7cZVJzn61NrFI+Xv2nvFynxxp+krIStpaeY6Z/ic5/ko/OuujG5DJ/gb4wsdD1c/2gwiiuojCs79EOQefQHpmlWBHoHxK+EVj8UrQ27hJrOZSHZWDBhj1H41ymh8q/Dr9mHQf2dviB4xvNMvftkmpTrFbRqDstYgAXT3JfPPoAK6YGbPYdPto0gEjgFjzz2pjM7V7ex1RfKvbSG6QdBMgbH0z0Pek9Skey/Dv426VqF9Y+GtSvYLXWJYibWN5AGuFTAOATnIyPauaSGeuf561AB/nrQAf560AH+etAB/nrQAf560AH+etAB/nrQAf560AH+etACigBaACgAoAKACgAoAKACgAoAKACgAoAKACgAoAKACgAoAKACgAoAKACgAoASgAoAKACgAoAKAA0AFACHpQB+fP/BRL4eyaZ4t03xPBGfI1OExyP2EseBj8VI/I100Xa5Ej5P0i6+36U9qx/ewZdB6r3/KukkyF1C48M63Y65ZjNzYyeaF/vp0dPxUkVIH1VoPiK08QaTZ6jZSCW1uYhIjdeCO/uDxTQHF/Hj4Ut8ZvB9vY27yjVdNkM1tGkiKJQQQQd5CgjOQT23epqWB82+JviVqnw7vLLwtFCt7ZaOkdteeehWR5FjCSbCeQNw4452j1NSlYo6jQPGWg+JIfOstThBxueCdwkqeoKnk49sitFITLieKPDqXTw3eqG0CjO9rWZ1P02IaYjJm+J/h+1vPJht9Q1Nf+ettD5YznHSTaemD0qQLkPi+91eQxaT4V1F8/dmmXO33IHH60AWLvwl4xeVgviGw04y9IpjFEU9vm5/WgDb8P+F/E1nOILq4g8QQuBie3u7ZfL/DeGP4ClYDY8fPqfg7wkbTT8W/9okJe3JbEhyfuLjovXmrirAcp4H8MNcXqM93FaRKcmaRhtUDknNWBreP/Ddt8P8AW7zxTqGtz+IfFV3AthYx2UJ26XYSNs3Dv5sisQTxtRm45FYKNjS6OS/4RRr2eC3WZtksqxZYdAzBf61aJbOj8M65feF/F8uqmM/ZZH8meBOjW6nCqB/sqOPp7mqJPdLPxHp2pXMkMNwhuIuGhZhuAwCGA7qQVIYcc9ulAFm/uLLU9NuNOv4I72wuE8uSKUbgw/zz68cUAfO/jr9ntre7luvDJa/syd32ORh58Q9jxvH0+b2PWgDitM8GywXgWWF4pUOcOpUj8KAPofwl4mu7+1WHWWM74AjuEUKyjHQgfeoA3dStYktGeZkNuR95+Bj3zQB5rrMGjpM0ltqdqgPJjaQcfTmgDmdQ1HTrC3e4uLuGOBSA0pPyjJwOaiQEcPkX0CT2ssdxC/KyRMGVvoRVICSFDG2RUgalrPtKn0pMaOp0u95Ug1Izr9NvN3U44oA6OznBA5oA1YZM9KALcb5NAF23mMbqQcHtQB4z8Ul/4RHxP5p/d2N6vnRE9A38S59jz9DQBjWfiaJ1GJAQfegDYt9YVsEMPwoA0oNTBP3hQBow6qQB84oAuw6pyCWyR0OaAOP1ue28ZePLTQJ/N+z29ut7I8TAEMkilF6Hg55/SgDvNX8R2GgWYutRu4rO3yF8yVsDJ6CgCTTtfsNWiElneQXKEZBicNQBpCUYoAq6rIBpd6OuYHyP+AmgDy/RLrRLnS/Dck19JY6h9ntJWaWJljL+XprHDKDjnbjPrVID0z4d674ptNd02C01f+0LEoEId1mXIhUjnkjlGPXr60wPZJfjHPpVxZ6ewWC/it1+1qhIQv1GBk4+Vl/OosSdn4Y+MP2gYlcMQM5/pRygfL3xq8ajxB8XtauUfKb440OegWNV/nmtYuwG/o+oB4I8ZHAqGJG/p3iCfTd5huJbbcMN5blcj3xUpXKZnRa/9q1H72QD1NapCOzTUc24wR0qGUfJX7UP7Q/jX4e/ErTtD8Mx2qWcWn/2hcG4h8xrk7juUc8AKueOeTWd7Aea/tA/Ee/8VaN8LfinobyWEyTyWMjQsf8ARbsMGUZ9Dtf6gVDVwP1k/Zs+L/8Awt34c6RqV0BFqptke4jHckYLD8QazlGxZ62Dn/8AVWYBQAUAH+elABQAUAH+elABQAUAKKAFoAKACgAoAKACgAoAKACgAoAKACgAoAKACgAoAKACgAoAKACgAoAKACgAoASgAoAKACgAoADQAUAFAHmX7Q/wri+Lvwv1PRQo+3opuLJ2H3ZlB2j2z0/Gqi7MTVz8hdd0m+8O6rc2zK1pewSFNsi4KOD91h9eCK747GbVgE8et2K3UUZjyTHJD18tx1U/55HNIDb+FfjtvAur/wBjX8uzRb2UG3lY4W1lPVT/ALDEj6H60wPoCK/AIcPuHPvUgfJ3xz+EUnhLU5dY06OS50O7fJLEs1q5/wCWbk84/uk9enUUm7jufP3ijTRbwNPtK4BGSO9ZsNz6o/Z08RTXnhez8O/EPS7KNhAsumalqAjEs0Z+7Gc8nAI2knoMdQK1i9Aseval4B8PSKIZtFtFjzuzHH5e4+uVwaqwjO13wl5uhNbaMIrWaNcCFycTDBAG/OQRk9TjntRYDwK9gJ8S3dheaPsuYFYiae3Iwc44JGfxosBavraeYYhnmsgOB5IVsDOR1Hrn86tqwrmxpfii6sEFu2ozXCZyYbnDoQDwNhBXoT2pXA6fTbrTL04+zRRzActYSmIk/wC7yvQ+gouM6VdBju3Mgu4rstx/pcO1uB03qTn8abdwJovCANzbzRLgwSJMBbyLIp2sG6de1SBS1jwjrcEckmm6Za6kSxYR3NxJCRk+mw5/OmB5H4rs/Hx1P7Zc+GJ4LiNQkUlmyhYlAwFVkJYAUAbfhv4n+LNKsxHqrLfTbiWaaEqyjsuepx6nmnYR0cfxd1CaPC2sCsecksR/OiwXIZviJqupKFn+ysB0LQK2PpuzilZiuTWniC4k4aYj2QBR+lUo3C5LeWy6uoE7GYejnd/OhqwXLOk+C7XeCtuhHsgqbFHOftG6JFYfCHUHjREYyRj5AAeuf5ioloB0vwa8Lw3Xw40LMWS1sCVCdKEx2Jb/AEPTrzU7uw0nVLS71O0QPPYxTK7qCcc4PBz2p2Ec2szQyMrZUg4KsMEGk0BtaXfbcDP60rDudjpd6Dt+b2qRnWafdAqPmoA3rSYEdaAL8L0AXojnHNAEPiPSE17QpoTEk0sY8xEkQMGx1XB65H8qAPF7rwlol6N4tRZSH+Ozcxfp0/SgDPk8DXUHz6drAkwOIbyPBP8AwNf/AImgCAw+IdLGZ9OmuIx1e0PnAfgvI/EUALZ+LoWk2SOY3HUOMH8qANR/FlrbWrTyTosaqWLM2MDHNAGR8GLifX9e13xPMjLFc4ghLAjcuc8fgEH1zQB6PYyS+JPFetafLapPo2n2Fu8k0kYdDcyySYjyeM+Wm7HXB96VwPHln0HxF8ctS8Eafo8ujS2lm91/adhcGMyMoBPyDgDrj6e9NMDnNZ+NGseC9Xt7fRNfbxLpclxLa+dcx7gssY3Mm7+LAPWgD3bR/G/9t/DyXXJLdN4tZWkgflSyqcg+xpXA566+JHh/VNdW11Tw9NYSpemET6dIJI8rcWsQHluBhSYsABsKEPBqkBr+AR4b1TxXpsum66hKxB/KkVoZwPsy4O0+glBOCeCM1QGh498TwaT4rjjs7r7V+5BeZZNxkOyLBJ9QNo/CpuKxreGPiA7IVaQgjAPze4q0I8gvfEp1PxteyFz81w3f3osB9FeHv2ftO+Nvw5ke91/VdHlaZkjfTLhoipUDk7SC3XoeKhsaVjyyL4PfEj9nW5b/AISHxQ3inwnfTvbWk907NPbuFLL94nIKg9D2oiwZqeHPEX2m+LeZkZ9a3TEen2GreZEBnPFYso8N/ai+FGs+P7bQ9f8AC8cc3iHRpiBbNgC5gYjcpJ64x0PUEismrsCbwx8OfDXgz4PDQvHsthZWF1erOUnlEUcU5IKBCf4sqcfjTWgHav8AtL2P7NHxI+HmlRWazaHqhdLidJcCKAkKGAAwwy2fyqZPmKufpBY3UV9aQ3ELrJDKiukinIZSMgiua1gJ6BhQAUAFABQAUAFABQAooAWgAoAKACgAoAKACgAoAKACgAoAKACgAoAKACgAoAKACgAoAKACgAoAKAEoAKACgAoAKACgANACUAFACMoYYIzQB8R/twfs3rctP4/0C1JLEf2pBED8pxjzgB24G7357k1tCfQzZ8EX8dx4eu5NQggaeFsLe2idZFHR1/2l/XpXUIt3Npaa7piTwFbqyuFyrDp9D6EdxQBteD/iheeCli0zXpJLjS1+SDUCNzQDssnqo7N9M+tAHslxJFeWkkM8aT21wmHilUMkinsR0Ip2A8h179nPSNcv1WyvYrWweUM8F2GYoo6qhHUdhu5HvRy3Gjy4TeL/AAt4x1XRtTtzHp7LM9oGiEkAMY3ZXcMMCFI6dwQRg1DVhm/aftJ6v4Ks7dNS06LUdM3iIRJ+7dc55ViSOx44p3JPVNL+MXh3WY4HhnmtBPBHPtuYWVVV13Abxlcjoeeoqk7gXpNe8P8Ai6SCza7s753ISNRJ86k+jDkD9KoD1yw/4J/+NPEG199po0D8/wCm3AkIH0QGsHWKsbuh/wDBLd5tbh1HX/HbOIflW20+1wu3HIJbv71n7YaRqfGr/gnb4csPASX3gzTzrXijTWMwTUpXP2lMfMqqrKu/pt3ZHGKFWHY+Hbnxh4j0rUJ91zJb3COVkt5YQNjAkFdhHy4ORjjFdRmT2nxi1C2dRe2Mc44G6FtjcdOORTA7rw78Wre5C+Te3Vi/Tbccr6jnke1AHJ+N/wBrLxF4N8SS2H2fTtWsAoIF1bA5B9GGM0paAUYP2vPCOtLs8Q/D9FJ4M2mXO0g9/lOOn1rONSw0XIfiX8IdfAa2vNS0SQjPl6hbll9PvJuqvahY2Y/CsGq2QvtGdNWszna9pMuT6/K2Dmt+dGZyehapd3HjW50i4sbizjEaNALlBGzHJDAlmAJ6cLRzXA7XxR4g0z4aabb3muO0cc7mOMRKZXLAZIwox07k1k2Bx9x+1boFiuLDRtRuGB4MiJED+bN/Ks/aFmB4g/aWg8c6XPpmr+EjeaRLgSRm52uOeoKrwfwNJy5ho7vwh4k0bxf4c0zRU1bUdG065It4LGGeIyADPysYX8wKcHJZPxqkM6KDwTrfw5tJR4ZsNFaxB3mKCNkmfH95yWZj9TWhJl+KNZ0vV9Lg1xN2nXT3K2V3bTKRic9Bn9MnGcipYFGxutpB5FIDqNJv2OOnWoKO00u9yoyfyoA6exugwAFAG1bS7qANCGTpQBo2su1gc0AeYePNI/sTWmkjGLW6zKmOin+Jf8+tAGDHdYI5NAFqO7I5BxQA+4+zamm28t4LsYx++jDH8yM0Ac7qHwy8M6zPEZorqGANue0t7lhFL/vA549gRQB2ljDbafaxWtpClpbRfKkMfRR/U+9AGzbeIb9dOXT45YXsEmNwLcgITIQAWLAfMcAAZ6YqQOC8I/DyHwlqHjnxXrcs+veNvECva2crIFtrW1I+7lcfMwCJwMKqkgkk00B5O/w+WG20nTIEa8uYZbnU9UmSFo7dLu4ZMQQhuWWOKNVLYwWZscCmB6lq/l+GvhsLVgIjK0cJXp99xu/8c3H8KqwHmCa2kkUl44HmOpuh67ts05/8emh/SmB1/wANPs1jr2oag2NlpYzxgjjq0NuP/HbdqAPN73xKieOfEFlbhY4LK8NsgQdAkEEf4nMZ5rNAdhomo3bRSMHYgAkHH1P9K1QmcdZ6hJZeK7mOUkN524596oR97/s1a8JfAtxDu/1d42OegKKaxZRT/bI1ZR8KvDbBs41gq34wS/4UoiZ8reAvEIku2UN0NdCEe2aJqm5QC3GOxrJlHiHxp/aB8VeE/HN1o2gR2tvDpVol7cC6h3tdocF9v91VB7YJ55rMCp8fPFsHxN+E/hK82rb22rpM8fmN8sd2igqM+uVkH0zQBy+r/DLxF8VPhP8ADHVIYpLq70m4msLgE/OLYnKN9FKgfiKbQH6xfsz+JpLzwFZaFezeZqOk28Mb5PJUrgH8CCK55qxSPYgeP/r1mMP89aAD/PWgA/z1oAP89aAD/PWgA/z1oAP89aAFFAC0AFABQAUAFABQAUAFABQAUAFABQAUAFABQAUAFABQAUAFABQAUAFABQAlABQAUAFABQAUABoAKACgBP8APWgCG5tku45IpUWSJ1KsjAEMCMEEfnQB8D/tTfsgTeGJLrxT4Otnn0bPmXVjHy9r6so6lPbqPp02hUvuS0fKem28dg80bWyKJm3SbVxlvU+9dRnaxU1uDTYBCb12WzmmWCVwAdit/EfYUDPen+G2tDT45LK8trqMgbVfKn25GQeParA5u68N+JrByLu0sYIs8yPdr/IZP6UAcz4i8Y2Ph+BlW5F5egFQkGRGv4nk/higDxW48Qa9rqTR38NkxMpZHitEUheeOc9jUAZGp217dCNZ3eRYl2opPCj0A6AfSgCPQpJdOvkdTsYHIoA/W/8AYi+Pi/FDwLHoWpzg67pCBPmPzTQDhW+o6H8K45RsUfTYIPT+VZlIMUDPDPjf+x94F+OEr399bzaPrzDH9q6dtV39PMUgq4+vPvWkajRFj5M8X/8ABMXxbYSSS6Hr+m6xCp3JDMGtpXHpk7lBrdVhWOCv/wBjvx34NVn1PQZY4kHMkebpB+KECtVVQWPmn4k/EeLw7r2o6CdAtNRjtn2eZc4KtwOQMEjr/e70pSuM8Z1aRNSuGnisbbT0bpDbF9o/76Y/0rACJLJ9oIDevXv60AfXX7PumXl58Lbe6ivJLeO2uXEiKisWAI4AIyevat0JnqN1oq31o0F3aJeRsP8AVyoGB/A9P6VoSjwH9ovw6tj4a04w2F/YwR3/AJYWaTdAcxsfkBYkdPYVmxngAtN77RnOKwsUb3hu13adcggg+YP61UUB2Hw1uIPDvjrStSmiaaKFnJRMbj8hA6/U1dgPebj45hci00hmz0M82P0AqwM5/i6mr21zY61oNtcWN2oSWKJ22sAc/MpznHrwaBMwPifBeeFZLDxPojm98LzALc2ijc0QP8SnrkH1z09aBGro+qxXdvDPbyiWCQbkdTwwNNu5R2ekajjaM+lRYDs9Lvs45FIDpbOcPg5oA1oJOnNAGhA/NAFbxbog8ReHJ7dP+PqL97A3fcO34jigDw/7QVcqRtZSQQex70AWI7njqKALEdwPWgCcXJUjHekwLEV4aQFhb32qgLMWqPERtcj6UATx6oBJ5nlRGQjG/bzQB4/8ffE8dtDp2nGUiSXfM4H8MeCHb8E8wD3YUAeUprTb/NlXdMGMhiU/xbldo/8AvvyIv+AtVID0bw5epoPgs3tzJujvLkLkfxQW4Jlf6FxLz/tUwPP/AISeGL3xXqup6rONzXl0biQ9fmbcW/UikiT6P8P+CBBbhWXJI6gdK0A8d+MWht4X+I6sgIiu4EnQj1A2n9VoA+gfgF8TrLw5YXEF/KY47kK6vtyAwGMH6ioAzf2jPi7B420S10eyjY2dtcG6M0g2szBGQBR2Hzk8+gpoD598IakbLWyucBqoD3/w3qe9UOfbms2B478f/ht4z8XfF7w/qvh/SxdWE9ktlcXGVMaKAQ4lBOeVPHHP4VmNHri/DXwfYfDXw74F8WXdvgTLPbxvOInM6szfu89fvFT6gmgZF8U/i8nwHvPCemWWkRTaNcuY7mXcQ0KZ42gdz8xyfSm3cDS/Zu+KGo6F/wAFDb7T2nc6VrNhFZFMnYUMCyQt6feB/M1jOOhSP1KH3RXOkMWqAP8APSgAoAKAD/PSgAoAKAFFAC0AFABQAUAFABQAUAFABQAUAFABQAUAFABQAUAFABQAUAFABQAUAFABQAUAJQAUAFABQAUABoAKACgBP89KAFoAjeESqVYBgRggrkGhaAfHX7UP7IkVxHdeK/BFoI5l3zXmkwpw3cvEB365UDntzwdoTtoyGj4W1qAbZIJ4sj7rxuP0IrqJPdf2d/Gn2/w2dHuJzNcae3lr5hyxh/hPvjp+VWB2/j3waniDTnmhO18ZO3vSA+afEHw7a0u3ZwWGTwRSuBmx+FApH7s/lRYBtz4SEik+Xj8KLAYV14MEbFwhyDxxRYDq/g98Q9V+DXj3S9d0+Qq0Eo82IsVWaM8MjexBx/8AqrOcR3P2J8H+IrfxZ4a03WLXAgvbeO4VQ4bbuUHbkdxnB+lcbVik7mzSKCgBCM0mgGmIEEEAg+1NXQH4Uft7+FrPwz+1X43srCyisbTzYpUggQIi7oUYkAcDJJrdMg+f5INtqjAdWxV7gaSWw2DjtSsB7z8KfHkvhjwHBY/YtSgiM0sg1C2sxcxEkjgjOeMVsibm/J45vtZcraeObQMf+WMx+xP9MMP61d7iOT8d+EvFfiXTYlMV3qwjmEoMcpuARgjjaT61LQzin+FHiPTolur3TG023bIEt9IlupPoC5FQkUT6D4Pu0WW3hNteySNuC2d1FM35IxNXawGlZ+H7i1vUkktpYkQkMzoRg4wB+tAGsyfPnHB75oAcEXd3waAOt8F+JoLHzdI1UCbR7wFWVxkRsf4senrQKxyl9ps/wd8VLpNwxfw1qD7rK6P3YZD/AAZ/un9D9aSVgueg6beEOpzwDVPULna6RqGSBn9ahqwzr9MvMgc5pAdFZ3AYUAalvLzQBq2suKAPJfip4aOlax/aVumLW9YswQcJJ3HtnqPxoA4fzWU1SQEqXLD60WFcsx3RPU0mhlhLnpz+tLlAsLcjHX9aVwHrN/tUXAk89gGKq8pAJ2xIXY4BPAHJPHQUXA+VviB4g1bXfFN3e6vYz6bKD5SWl0pX7NGnzBHHqDiRx67E6mi4C+CdAvfF/iOy0nT1dZ532eYxyYVBy8jn/pmCzsf+ejqOq00wOq+J3imxZ00vTDjTY4BY2GT961Q4klx/01kHB7qpP8Qqrgdn+yRNG99q+iXA/ebBPATyTj7wH4YNCJPp2GwSH5QMc4yBWgHiX7VHhwyaNoOuwrk2tw1nLgdFcFlPtypH1NAHn/hLUDLpYTcCw9amwC+I3eaAbckk80wOHST7Jqqv0560wPavCGrmREycioaA9X0a9EqqOOlZ2Gj5d/aR8Qr4m8WeItFeQRanos9ncWG5gH8poV8wL65L5x7UWGdH8Xvhz4s+Iet+CbmO2uL2xv8ARYIbwsTttbqNy/mHsCyyFfz9KOWwH0P4X+Hmi6N8RNL8WQup8QafaW1s5VhkiIEIxHUdevcY9Kb1QXsfonoGrxa7o1lfwkNHcRCQEHPXqPzri6lGhQMKACgAoAKACgAoAUUALQAUAFABQAUAFABQAUAFABQAUAFABQAUAFABQAUAFABQAUAFABQAUAFACUAFABQAUAFABQAGgBKACgAoAKACgBGRW60gPjD9r/8AZRW/F5418IWgWUZl1HToQfmGOZUH6sB9fWt4VbaCsfCthqGo+E9Xh1PTZjBcwnkHlWHdWHcGum5mfQfhf9ovQb2zsbaZLl9XuiYxp0ERZ94HPJwAvoSfw7U73AqeGpLv4iaj4i+0x2SwWkyJH9l3nyiRkxyMeC44zjp6cigCW+8BTWv/ACyyKVwMa68NtGCPL6UXAy7nw8HUjH6UXA4zxR4Z8uEyKuMdKe4H0x+wB8epdF1qT4e63ck2l8wbTWc8RTAcx/RgOPce9c1WNrFRP0ERtyg5zWBY6gAoASgD86/2y/2CvGvxg+NmpeNdAms59N1CCEPCXImjkRAhG3GCCFBBBrVMg+PPGP7LHiPwTqD6ZqHhjxhcPG2PPs9CMkDH1VvMyR+FagXtE/ZE8feKrAXWj+H9TZSdogvLOSCXtyVIIx75ouB+lP7P37IPhnR/gb4Z0Txv4as5PEMFuxupoXaOVWaRmALoRkgMB36VhzlWIfGH/BPvwF4hV/sdxdWRI+WO4VLlR/30A361Sq2Cx4x4j/4Jp6xpTPL4Y1i2DDp9nuprRz+HK/rV+2Cx5b4w/ZY+MGiW3k6jZza7ZxnKxajYR3sY+jJk1opknncen6n4Luv3vgXTrO9iPFzo6JDOh74WVP0q+a4GVrmrW2ssG1PVdW051P3dXtDsHH96PK/pTAoQeF5r9S2m3en6umc/6Dcqzf8AfLbSPyoAqX+kXulkC8s57UdjLGVH+FAFVSRg8EAfWgDsNIudO8aaI3hjXY45VPNpJMMgHrsJ/kaCRogfSZjasnlmEiPb6AcCmhM6DSNRww5xmpZSO20vUBheakZ1em3gZQc0Ab1rcb+9AGvbSZoAl1TSbfxDpU1hc/ckHyv3RuzCgDxPU9Bh0vWJ9LlvLZb2IjMcsnlswPQgHqDxyK0QFS48P3Vs2ZIXQdiV4/OkSZ7wPETkflQNEfnlTjODQMlS496VgC81aDTbSS5uZkggjG5pJDgAUWA6X4S6rf6nqEupy6XJp+lAbbe5uWKXE47skf8ACpPdiCR0HNFgPQPG3g7wp8SrdhrdhHJOFAjvIsLLHgkghu+CxYBgQG5xkA0WA8+0T9ne08PW0mmaHfiPT9WO3WNSZsXX2INkWdsBnYrAtukLbj7k8JgfNH7Q/gi48BfFHVLRIy1ozC4snHT7OUGEHsu3HttpARfCnxx/wjHizS9SjlWOSFwGDHCup4Kn8KpEn2/puvRa5pdnqUEbwx3MYcRyfeT2OO9aAZXjXRo/GHhXVNFcqGuoj5THtIvKH88UAfK/hiWWwu5LaZfLcMUdW/hYHBB/EGgD6s+Bkeg3vhZ1gt4Xv1cpeGVQzEnp1/hIoA+dfjl4Bbwd8QL6OKPFldMbu1wOit1T/gLZH0xQBT8Jam1uqqTkjg80mB694Z1sHZnNZDRJqnwa8KeM/HNp4t1G0ebU4YBAUD4jlAPysw9QOM+hoGVrf48CL4yWXg2SxiXSr+L/AEPUI5MlmG4YK9ANyFeO/wBalsDxX4A+OdY1X9q7xS008skN1qF7bTRsflVEd/LH/AQoApR1Ez9Zv2d/FP2zSbnRZXJe2/ewgn+AnkfgefxrKpGxaPZP89ayGH+etAB/nrQAf560AH+etAB/nrQAf560AKKAFoAKACgAoAKACgAoAKACgAoAKACgAoAKACgAoAKACgAoAKACgAoAKACgBKACgAoAKACgAoADQAUAFACf560ALQAUAFACGgD4b/a8/ZN8iK98Z+ELM/Z8GXUNOiAJjPeSNfTuVHTr0zjenU6Mk/PKG+utA8TRWetRxzuJxJZTspRLgA58tsHg9uOoNdGxLPuD4R+ONH8U+Goo9OhitBCdstogwYXPUEd89d3etExHodvYwXuYZFBY8isijH13wQIwWVOKQHFah4b8piTHQBzWteG/OgYBOfcVpcDx7XdOu/CmtW+qWTNDPbzLLG6cFWU5BBqJaoD9Sf2bvjJbfGj4aafq4kT+1YVFvqEI4KTAdcejD5h9a43GzGes1JQUAJQAUALQAlABQAtACUAB6UAZmseG9L8QQmLUtOtb+IjBW5iWTj8RTTsB5v4j/ZZ+HPiNX3aCtjI3O+xlMRH4fd/Sn7RgeM+Mf+CcPhHWS8umak8MhPAvLdHI/wCBoFNae0ZnY8o179gL4g+GVc+HNZlniA4itr8EH/tnOMfhmtI1O4WPJvFPwI+Jnhct/bHhS1v416vcae8Ln/tpCSv6VftEFjgLjQ0tJN134f1fSpUIPmWMsd1GCOclTh6asM3LhtI8WNc3NhdE6+FD3FoYHtxIqjBcRuMhyMZwSDjPGa00EzItJyhHY+lMR1ejanyqsazZR2ml3wOMEVCA6iyu9wHNMDdtbgnFAGzaTcUAc38T/hfY/EzSowxFvqtuP3FyMcjujcdD+lAHz5D4F8VeHPE0mmWesGwSKMOZPNO0MTzGVBIJxg9O9WSavjTUNU8JeCNQ1fVtWs7+OAbRIlnh954A3hgM5I7GmhM+ebf9oLUFnIcRXKE9DGVb8xUNlI7PTPjnp13bL52nX1tIQqmYOroG7/KVHqO/rSGdDbQ+IdTu2uvD+o2uq3lntnFndiJ9m7IGGUlQeuMHPFUmluB6Hq3xQk8N6MZ72J0ulUGVr+J7eJScD721i3J/hBJ9quyZDLfwa8awePL2+vbjxA01zbkbbGKH7NbqmPvKGJdvqxH0FMZ7ELxITgOuOoJYc0AeZ/tEfD+H4n+Bxc2YEniDSi0luqH5p4yPmj+uMkD296APiuHwxcPLtw209RUWsB9T/s/a+mk+En0HUXWMxv5lvPIwG/d1Vj9cAe1Xe4HqE1ywcoxKkH9aAPF/il4Z+y60des0xbz83KqPuS/3vof55oA5+y8Zav4EuoPEmjK07WwH2yyX/l4hHJA/2h1H41LdgG/FH9q7wl8S9DsbS2029fVknVkJjxszwwJ7jGePUClzMDItVa2mDDgd6AO38O6kyOuSMUmNHqGiauzQqFYZqRnzj+zp4N8T+JvGWm3+vadLaW/hq7njS7lBVpOSdmD1w5PPvUgfSvgj4N+H/BnjbXPFFkrtqGrXElzIGxtjZ+WC8dCc9fU00B7z8MvFH/CL+LLC8LbYQwjmx0KHg/0P4VMgPsRJFkUMp3KRkEd65Sxf89KACgAoAP8APSgAoAKAFFAC0AFABQAUAFABQAUAFABQAUAFABQAUAFABQAUAFABQAUAFABQAUAFABQAUAJQAUAFABQAUABoAKACgBP89KAFoAKACgAoAZLGsqMrAMp4IIyDSFY+A/21f2NLeWxv/FPhqy36Y5ae9sbdPms36+dFjoueSB0+nTaM+jFY+IvAfjTWvhz4qjtZGYahEp8uQ58u+iBGQfcD/H1rpv2IasfcHw8+IGn+OdGivbKQCQfLJESN8bd1P+PenYdz1HS7mLVrfyptolXjnvUvQZk654ZCliFP86LgcXqGgbQ2V9qFqB5p468HLdQORGMY9KqwGJ+zp8Zb/wDZ++I7q0bXek6gPInszLsUnI2sDg4IOecdzUThzAfqjpuoJqdjbXUYxHPGsignnBGf61yNWLLVIAoAKACgAoAKACgAoAKACgAoASgAIzQAxoVcYPI7j1oA53X/AIbeFvE6sNV8Pabfk/xTWqFh9Gxn9aabQrH55/tn+Ep/gN8QLO90HTIF0G/i8+2Qq2I3XiRFbORjIOPRq6aUr3uKx4St/a+KNOOt2CCAltt3Zq24wv8A3gf7p65966CHoFpfGJweeKgdzsdH1YMVIOOnFKwztNL1AEjkYNIDp7C6yo5/WgDoLObgUAakU+ACDigDgfjP4GbxToh1Swtba41WzUnyp4Ffz07jOCQw6jH+FVcVj5d+IFt9v+GeseYghkVEfyobqVowQ6/wM2P0o3Cx812dmFvkU5xuxisZNjPRW05F0HZswPPOcD2Fa2YH11/wT18f/Db4cQeLV8eWkTzX1xbfY7y5003UcQRZN25grFclh27VlOLewHj37cni7TfFv7SXiO48MX0V34XeGyW1+wMTasRbJu2qPlyG3A8ZyDnmrgmJo5bwLpUcMMdzLcrbxEdWOM/54rosI9w8L/EjTtMto7G6voGhUbY5GkBKD0Pt/Kk9AO5tPEUboJ7WRZUPIeM7lI/CpuBx3ijwDpOv3zalaGKwu3O6WJwFSU92HoT+vtVNARaTFpOgMFvL6ztWXAIluEXP61nsB0X/AAlmmX7iCO4MjHAWZBlTwMA92+tPmHY9Jb9l/wCJWqJs/sOPyJl5MlzHtYEdxms/aofKZD/sG/EaISS20WmonUQNdjP06Yo9qg5TzXxd+xz438CvLqM3gYzhfvXWnRLcFffCZYfXFP2iDlPLJLNlYhlwQcEEdK0sDRo6a3ksBn86HEk7nQr/ACgGetQ1YdzvdIvDIijccDoCc/571NhnUWk24A0wNezkO8HOfak1cD6++D3if/hJvBlq0jhri1/0eX146H8RiuWS5SzuKkAoAKACgAoAKAFFAC0AFABQAUAFABQAUAFABQAUAFABQAUAFABQAUAFABQAUAFABQAUAFABQAlABQAUAFABQAUABoASgAoAKACgAoAUUAFAARmgCK4hjniaORQ8bDDKwyCO4xSsB8C/tc/sm/8ACLSXPjHwnaB9Gc7ryxjyWtCerr/0zz2/h+nTqpz6MzZ8o+F/E+ofD7XU1CwYmMnbPbE4WVPT6+hrcR7zp3xmuPHfhjUZfDl5L4e1i2niS0jdIp7m7+b5lWLnjoM9s5OMUWuNH0voV6NZ02KO6dHvEQCUrwC2OSKxk7DM/VdAG44Xj1pJgcXrnhsTROpWtU7gfNXxb8INazNJGhBU5BFUB9H/ALFf7VUYtrXwL4suvLeI+XYXkuMAY4jY+nofwrCpEs+5I33jIOR2NcoDqYBQAtACUAFAC0AJQAUALQAlABQAtACUABGRQB5L+018F7f41/DG+0pUQatbBrnT5W4xKB90nsGHH5HtVRdmB+R0VvqPw78S3UEsBSWF2t7m0mGAwBwyMPqOvY13Qd0ZszdaV/BGtQa1bPPJ4V1j5nE/3rWQkjPfAzwe3egR3ml3/l7WDAocEEHqOxoGjtNJ1TIUAge9ZsZ2mkX27ac8UwOx06YOnFAGtHJxQBKlyYn3AmgDwjxf+yprXiiTV7XwNps13bahIZ2iVSY7d3bJXPZc5wPT6Uc3KB5X4p/YK+JPga3Gp6zpsvl78iPTbWa8Yd+RGh/Op5kwLPhX4A+J/FkUtha6JrJlRjIDPpFxApOBxl1H5VXOgPqD9nz9iHxXb+CtQm1GWDRr6a6Bhtb2Nv3iBQNx7rzkdKl1UgKXxY+BEvwy05b7xdpOmnSnlEH20lXh3n7oLEArntnH+Ip3A85u/hF4E12zCy6ZPb27DIexuzt+oBJH5GtrknF337KPhDVXmGgeM7vS7sZGy9iMqK3YHaxx+VAHnF34D8b/AA81G7027uDqcEZV4tS05XWGRCOnIGCCCDn2pAYWt6J4lvYWAsr6UtwchjQ2BH4S+G13a3yX2qwmII2Uik4JPvUXuNH3F+yN+zdqnjvxLY+JtaspLTwxYuJk89Cv2x1I2qoI5XIyT04xzmsZSsM/RwAD/wDXXPYsMD/JosAm0HtQB8VftZ/s36fBev4o0q1FraXZxcmEcQTE8MR/dY4HsfrXRCdxM+JtTtrnQ9Wmsrtdk0JIPoR2I9jXWZm1ompYZckVDA9C0TUQCg3deoqSjt9NuPMUUAbtm/Q0Ae1fs/8Aiv8AsrxK2mSvthv12jPaQDI/PkVjVRZ9KKc1gAv+etAB/nrQAf560AH+etAB/nrQAooAWgAoAKACgAoAKACgAoAKACgAoAKACgAoAKACgAoAKACgAoAKACgAoAKAEoAKACgAoAKACgANABQAUAJ/nrQAtABQAUAFABQAf56UAQ3Fsl1HJFLGskTgqysMhgRggj86APz2/a1/ZWfwJNceKPDNq0nhyVt1xbrybNifT/nnnoe3T0rpp1OjJaPmrwR4wuvhz4h/tC3iEsEgCXMPGXQHsfUV0GdrH2F4L8YWmv6dbatpc4licZB/mCOx9qQz1fR7+DX7UZwswGCveuflNRL3w2HUgLn1GKNgPJfiX8Ov7RtJDg9OwrRMD5Q8UeAbzR9UM0BaKVDlXH9atu5B9V/sq/tgS2E1p4N8eTCJPlhs9QlzlOwVz3Xpz278dMJQvqUj7mhlSWJXRgyMMgjoRXO9Bj6AFoASgAoAWgBKACgBaAEoAKAFoASgAoAa43DGM0gPlT9rj9kSP4qRz+KPDECxeKI1BntwQq3wA/IOMAehHuAa2jKwHwholtdPFe+CPEMcn2KXeiW9ypzby9wAfu5wQR711c1zI4HSIdS8E6/N4Y1GGaW2jJayu9pYBBzsc9iB0JqkB3lhqbQlTmmB2+g64rhfm5rIo9B0PUy23JGKAOugcOgYHIxQASMelAHcfCDxsfBniqB5WxY3JEM4/wBnPDfh/jWc1cpH17DIk0Suh3IwyCO4rlYx9MAxQBQ1vQ7HxHpd1pup2cN/p90hjmtriMPHIp6hlPBFAHhl3+w/8N4YJk0G3v8AwuzksBptyTGCf9hwwx7DFaKqwOQk/YCtbxnW8+JfiU27H/V2lvaQnHpu8pj+IxVuqwNTTf8Agn54Bs41juvEPjPUowCpjudZ2qw9xHGtL2jA7C2/Y0+EsUEMVx4WXURGMA31zLMT9ctzWftGB1fhr9n74ceDZlm0TwPoenTjpLFYx7x/wIgmlzNgegRoI0ChQoHAAHApAOoAP89KACgCpq2l2utabcWN7AtzaTpslikGVZT2NC0A/L39qf4GeJvBfxPup4HguPDgt3ntoym2YJuyArAfPgHBBORgf3q7KcyJHg/h7X4NSV3t2bMMhidGXayMOoIP+cVsSelaDqXC85rIo9E0W+3KOaAOrs7jIBBoA6PRNRksryC4hbZLEwdW9COazaA+0PCGvx+JvDtjqUZH76MF1H8L/wAQ/OsHoUjZqRhQAf56UAFABQAooAWgAoAKACgAoAKACgAoAKACgAoAKACgAoAKACgAoAKACgAoAKACgAoAKACgBKACgAoAKACgANABQAUAJ/npQAtABQAUAFABQAUAFAFW+0+31KzntbuGO5tpkMckUqhldT1BB6igD84v2sv2X5/hbqU2v6Fbvc+FrtyQqA5s3PSNj/dJ4Vvw+vVTlfcmx86/CL4yXXg/W5l8uaKNJNt7pUjfMBniRCOD7HvnBrUg+0vDXjezvNOh1rT72NrXbv8ANU8YAyQfoAeOtKxpc9Y+GfxH0T4m6LHfaZdJcKTtJwVOR14IBrOaC5f8W6SjWzAgCovYLnzt428Exzyysse9iemK1WhJztn8BrXxHazR3gMLYzHOi4aJuxB/KruM98/ZP+L2p2d9L8LvFbPLq2lxs9hqM0mDdQZG1cHksAeMZ4HtXLON9R3PqesLjCmAUwCgAoAKACgAoAKACgAoAKACgAoAaU3Z9/akB8w/tYfsyQ+PbCTxd4XtVh8WWIErxQoB9tVTnHH8Y7Hv09K2hMnlPkjxB4Ii8X6TDcwj7JqCLgBhtycco30ORz0rsi7ktWPKdT0u90W5MF7BJBKDj5gcN7g9xVEDrDVJLKYEE7R1qOUu56P4c8SLKijfyPek1YZ6V4f1hZ1AY4H1qQN9mDnI6UAKGKkY9aPIdz6v+A/iw+JPBMdvM++609jA5JySvVT+XH4Vy1I2Hc9KqBhQAUAFIApgFABQAUAFABQAUAFABjNAHA/GT4Z2/wASvCktnhE1GANLZzlfuvj7pPo3Q/ge1OLsxNXPyJ+NPgi6+E/ju41gWr22nXUvkahblceRID98/Qjn2Ptz6EdjNqxf0TUlJiZHVkcAqynII9QamxR6RoGpZ285+lIDvNLuw6DnnFIDorCXkc0PUD6E/Z58Y+TcXGh3D/u5v3tvk9GA+Zfx6/hXPUVrFI96XkCshi0AFABQAUAKKAFoAKACgAoAKACgAoAKACgAoAKACgAoAKACgAoAKACgAoAKACgAoAKACgBKACgAoAKACgAoADQAlABQAUAFABQAooAKACgAoAKADrQBm6/oVj4k0m503UbWO8sbmNo5oJRlXU8EUrtMD8p/2xP2Vrz4TeKo9U0NyLKZi2n3b55GMtby+uOx9MH2rspz01M2eT/Cb4myaDr9nqaKytYyPDdadcszLC0i7HbYDgnaTg1qM+3Ph5qFpYaTZ3Gk3fmiXNx53ygylju3YUY79B6Umrgew6Z4sg160FteDy5jwG9TWLQGTqPhk/bdsqB0JyGxwRSuBHeWsdopiVQPpRcDzX4l+DL3VEstc0GY2PifSJBcWV0nByOqn1BqkrgfS/7P/wAarb40eDlvWj+xa1ZN9m1KxbAaKYDkgf3T1H4jtXPKNiz1Ks0AlUAUALQAlABQAtACUAFAC0AJQAUALQAlADWQbSKAPmz4+/BOCyN/4s0WLy1k/eX1ogwuc/NKPTrlh7Z9a1hNks+Zr670e/jeG5kt7hASrIwzg9/pXZHUVjmbqLwVYkg2Nru9PJLfzqiTideubGz1A3ej5W2PMsW3aEPqPb/61RIaOm8MeJfM2HdjHUVAz1nR79b23ByMigDRo6gexfszau1t4tv9PJOy5tS4HbcjD+hP5VlVGfTH+etc5Qf560AH+etAB/nrQAf560AH+etAB/nrQAf560AH+etAB/nrQAf560AH+etAB/nrQAhAOM/zoA+X/wBsP4C2fjXw9f67b26N+7xqEZGdygYWUDuRwCO4+lbQm9jNn5s6LHaadDHbWOxbaEtGgjzgbSVIGeeoPB6V1DPQPD+pYKDNJgei6JqAIHIqQOy0663bTQB1/h3WJtK1C1u7dyk0Lh1IOOQamUblI+vvBHi+38Y6HFeQttlA2zR90fv+HpXLLQZ0f+etIA/z1oAP89aAD/PWgBRQAtABQAUAFABQAUAFABQAUAFABQAUAFABQAUAFABQAUAFABQAUAFABQAUAJQAUAFABQAUAFAAaACgAoAT/PWgBaACgAoAKACgA/z0oAKACgA/z0oA4X4zfDO1+LHw/wBU8P3Kr5kqeZbSMB+7mUHY3tzwfYmgD8gfEPg2PRvEd8LuxFtq8Ja2mYrhwVbBU+uD3rtTuZs9J+AHiqe0udS0GZ+IAl1bewYkOPpuAP4mtErEo+ldE1+O8VY2cJcKOP8AaqWM7rQfifoum31toet6hbW93fZFpHNKFklI/ug8npWbRRb1a0eO6JJ3o3zIw6EVnaxSM6SE5PHatIjOQsZH+E/xT0rxpYZj0u9kWw1q3X7rxucLLj1ViDn2NTMg+0YWV0DKQVIGCO4rmKQ+gYUALQAlABQAtACUAFAC0AJQAUALQAlABQBFdW0d3A8MqCSKRSro3IYHgg+1LqB+Zf7ZvwC1n4c+MJNc8JeZ5V0PN+zoc+bGMZGO7IcD3UjuK7YSujNnjXgTwt4m8YapZrq+ialaWZmUTzjCrsyNxDHocGtBnW/Fa6+HXgDS57KyS8l12Q7YSbkuM99y4wRjr9eKTA5nU9E1z4eXdgNZsJNNF/bJdwpIwJCsMgEjuPTqKkD1LwFrwulXDZzQB6SDkA0uoHoHwLuTbfE3ST/f8yP80P8AgKmpsB9eVylh/npQAUAFAB/npQAUAFAB/npQAUAFAB/npQAUAFAB/npQBHNAtxG8cih42BDKwyCPegD84P2vP2el+HuuSavpFksem3TvcK0SgZJOXVsDlgec919SDXVCVxM+dNNvDFIDnA9a6TJnoPh7VgUXk1mykeg6NfhguW/KpGdbp12C3Bpgei+APHVz4N1aO6iJeFhsmizw6/4+9YyjcD6s0bV7bXdPgvrSTzbeZQyt/Q+hrC1iy9/npSAKACgBRQAtABQAUAFABQAUAFABQAUAFABQAUAFABQAUAFABQAUAFABQAUAFABQAUAFACUAFABQAUAFAAaACgAoAT/PSgBaACgAoAKACgAoAKACgAoAQjNAH56/8FGPhHqHhBJviZ4b0n+0LaZQupW0fy+XL0EpIB4YcH3HvW0Jk2PE/gxb6Fqulaf4rsbstPd2nlywtIuIW4LxnHUqwIrsT5iWrHpdx4is7IgtfxRv0BEgyD7UmhDfDEFv418TaJeX8ltKdFiZBeSYlub18lgxbA8pRnoM7sDBFSx3PpPQNVXWLT7FOwNygJic/wAXtWLQ0xZIiGIIwR1pc1jQyfEmjx61od7YyruSeJkxjvjim3cmx7/8H9Xk134ZeGryc7rlrKOOY+siDY/6qa52rMDsaQwoAKACgAoAKACgAoAKACgAoAKACgAoAKTA8a/ag0RNQ8D2V7sDSWN/GxYjPyOCjD6ZK/lWtKVmS1c+F/iF8Q18DabqNlaRSTXUJMapHkt7HFdgj5t+GFhceI/isfEHimJ4orC4WWK0uxjzZQcqpB/hXGW4x2PekB6v4r+Nj/tB634zso9r6XoWnLc6Q+Ml2ilUTSk9fn3nA7KF9DRYDX+E8/m20JzznrRYVz3CJsxr06VDGdV8NdWj0Xx3o15MyxQxzje56KDwSamWqA+045UmRXRldG5DKcgj2rlLH0kwCmAUAFABQAUAFABQAUAFABQAUAFABQBy/wARfAVj8Q/Cd7o18F2zLmKUrkxOPusP88inB2Yj8kvjP4L1D4Q+PTpWo2wt7SSdomkJIETHGznpsJPB9GFegpXRDViro2pG3fYxKkHBB4xUvUVz0jQ9WDhccVJR6Bol2JAOeaAOptpvkAJpge2fs9eN2h1KXw/cv+6nzJb7j0cD5h+IGfwrCY07n0CDntiucoWmAUAKKAFoAKACgAoAKACgAoAKACgAoAKACgAoAKACgAoAKACgAoAKACgAoAKACgBKACgAoAKACgAoADQAlABQAUAFABQAooAKACgAoAKACgAoAKAM3xBoFh4j0a80zUbWO8sbuMxTQTDKup6gijYD8gP2qv2fdW/ZP8d3F3pLTN4D1iZ54JogW+yP3JHqAQGHdRkcitoTJkeQ/wDCc6xcXiWtyZM4UrcQLvRgRkNkdiCCCK7I6kHqvg7xBJoCLfPeS+eoyVbBUgdQf8abQH0x8JviXbeNtPW4s5jJJE2N/cFTgqfccfmPWsmho90ndbu0tb5RtW4TLD0YcNWTRqiqyg8dM0hHoH7Oeq/aPCF9prff06/niH+6zsw/maymB6vUAFAC0AJQAUALQAlABQAtACUAFAC0AJQAUALQBwvxrshffDLXlIyY4RMMf7LBv6VUNwPy2/aT0LVdD1vUvElnfrZWbJbFUU/O8jArhR7bc57da7iDwTTLTWtfjuGacRRyLtuNQu5NkMEbZzubHJYZ+UAsRnAOaAO1/Z78NuPiLqI095LrQ1sp4by9mTyl8p0KBiD93LFcDNAHY/CDVFhma1Y5aJyhwe44/pVMhH0v4aS31jxT4b0a4maCHUJm81lPzGOONpHC+5C4B96xZZ0+raNp1hc2l1pkxuLJrk27r5m8xujYZd3tyD70gPdPhn4uuNAu4tI1CXdp0zFbeVzzG3Zfoe1YyRZ7KD/nNZAH+etAB/nrQAf560AH+etAB/nrQAf560AH+etAB/nrQAf560AH+etAB/nrQAf560AH+etACN0PP60AfIH7enwp07xVpmlak9sjTTrLaNLyCG25TPYjG4EH0HpXRSd7kyPzz068u9Nv5tG1C2uFvbL5ftDL8kqg4U5/v4wCPYnvXQQdzoniAROoYkYqCj1Pw1rauqHdmgD0SwuVuIlYHnuKANPSNWn0fVrW+t2KzQSB1PuKmaEj7T8K69D4n0Gy1OA5juIlfH9045H4HNcrVjQ1v89aQB/nrQAooAWgAoAKACgAoAKACgAoAKACgAoAKACgAoAKACgAoAKACgAoAKACgAoAKAEoAKACgAoAKACgANABQAUAJ/nrQAtABQAUAFABQAf56UAFABQAf56UAFABQB5v+0L8N7P4qfCLxHoV1CJJXs5JbViuSk6qShH4jB9iaE7MD8WrGAaN4fuYGyp0nUBbhTwVhmVpFX6B1kH413xehmzL8QeMZbxE0+zbFzOcAqM7R3P+HvVXGe+fsW+L9Ks/FOq+ELYifyoUvGuSxKvNv2yqvqBlfm/iO45IxRe4H3tYAPoJRSMQzBgB2DD/ABFc8gITkUjQ7n4B6abUeJ5jwst6pA+sYY/qazmI9brMAoAWgBKACgBaAEoAKAFoASgAoAWgBKACgAoAy/E1kmp+H9Ts3xtntpIju4HKkdaaVwPyJ+JHio/EzWvJWMf2faoIIsf8tCOWf8STj2xXoqNjI58+ArjXJ9Ps9sl26bILa3ToCcAADHU4xnrWl7ID1n4qabpnwJ8L+E/hnZYPiHV7yK91yeMZCvyIoiR/Cu7p3IJ9K507sdjwTwrqzaF8Sr63Zgkck7MAfQnIoEfQHibU9SsI/CvibRk+1XmiXy3L227HnRFSkqA9iULY98VLGj2T/hPbPxvYaf8A2XZTWduZvPdJ4wjGRjzwPcnJ7mkM9Q1dg8hiBwFOeO2OlZtFntHw38Y/8JPo5juSo1K1wk6qPvejj2OKxasB2FIAoAP89KACgAoAP89KACgAoAP89KACgAoAP89KACgAoA8v/aM8KXHir4a3K2kLXF1ZSpdpGo5YKfmx/wABJrSm7MD4E8efDGDxMftlmwt9RUYJP3ZB6N+nNdz1RmzyK+8I67pd0YZdMuA45HlIXU+4K5FMRtaDqOo6M8Qvbea2RjhWlQqD7c1Eho9h8KeIVlCKX68VAztl+bBHQ0MD6H/Zm8Qvc6Zqmjytk27rPEPRWyGH5gfnXNMpHuA5ArMYUAKKAFoAKACgAoAKACgAoAKACgAoAKACgAoAKACgAoAKACgAoAKACgAoAKACgAoASgAoAKACgAoADQAUAFACf56UALQAUAFABQAUAFABQAUAFABQAUARXCCWJkbG1lIP5UragfiJ8YfCc+jfFT4geF4Im8y4FxHBGqn/AF0E4kj/ADQuP+BV3QV0Zs8e0zwLq4eS71AjS0XKfaLolMHH3UH3nb2UHr2qrDPU/wBlfwjq+hfELTfEBgaDT3SeIyOditGEyxHrjK8frRsB+lXgPVI9Z0hxE4fzIsg5zyrD+mazcbgcP8O/FWr69b2ms69qMFnBr15KmiabbRhgIUD48x8Elysbt1AHT6w9Cz6O+CvyNrqeskMn5qR/7LWUmB6dUAFABQAUAFABQAUAFABQAUAFABQAUAFADWbaaTA+VP22/jyfCfh0+CdDudut6on+mSRP81tbEEEcdGfp/u59RXTRhzPUlux8OeHtJKN9w46AYrvb8iD3/wCGn9gfCfwvf/EfxCY557QNHpGnJhpZphwXUHuCQB9Se1c829ionLftD6bp+taJb+OYiJxPHBerK2C0eQpXcR06jnpyamOhZ82/Fb4b6n4E1238SvfLPperXG60WX5JYyckRhe4A6EdjVtGdj1/4feLkvNLSC85BUZB7cVmGx7p8NLvRIdY077de2+n2jPi286QIbmcfdRAfvHqePSiwXPV5NxmYscnrmpbuXc0vCmuP4c8S2d6jEQlxHOoPBjJAOfp1/Cs3G4H0chygPB46isLjFpgFABQAUAFABQAUAFABQAUAFABQAUAMkjEi4OCCCCMdaAPz+/a2h1L4IeI7i/tLAXOhTnzx5aEGKM8MQOmFbgj0YH1rtpy5kS1c+ftH+J/iL4hXotvDdrFeytn5E2A8Ak9TxwDWlybEN3feJtR/tO11Cw+02NlGJL6WzCyCzGQFlJTPCkjPsT0HNJ6jH+EvEL2l39nnkAkjbacHg+49jSsB794e1NdQsUcNuOKTQHs37Ot4bf4geVk7Z7WRSOxxgj+Vc00Uj6jXoM9ayGLQAooAWgAoAKACgAoAKACgAoAKACgAoAKACgAoAKACgAoAKACgAoAKACgAoAKAEoAKACgAoAKACgANACUAFABQAUAFACigAoAKACgAoAKACgAoAKAGucDrjigD5p8UfB7w3Z+MPGHiWC2W51TXZld55BnykCKuxPQFlLH1JA7Cu2nsZs+U/GvwV0zXfEawJHFC77nnndjtiiXLOxJzhQM9PwqxniHiL4z2eu+Kr2x8MQ/YfDnh+3+zWEoGJJ4twjlkYf7ZYMPQdfSkwPc/wBjD4q3E0N54e1Sczz2cjSxTA5LxMcMPqCc/jUge+eCfBF34OFzZQz2l/of2yW807zA3nWgkJLxjjBALPtYHo2COOcpFnv3wZtD/Z2pX2B5dxMscbD+IICCfpuLD8KxYHotSAUALQAlABQAtACUAFAC0AJQAUALQAlAAelAHzp+07+08PhQo8P6CiXXiaeIu0rAGOyUj5WYd2PUL045rSEeZkt2Pgu9ub/xTrNxqmrXct5qFwxea4mbLO3+e1eio8qMmzqvCPhm88QazaaZptuZ7y5kEcUajkn/APVk/hTnNJFHsPxc03wB4U1fwR8HtQ1OSbxjqUM0s0kCh4oSy5Akyfl3FWCjGfl5rjc+ZlRPnXWNI11NB1KDRZ7TVG0TTri903Vo8zWGp6WsgFzaTDHJVn3KDypDDptItFmBD8MdK+MOnaZ8RNR1EwaBC7QXVjcXDPHHcRhVAVjgldrptPHoemTSdyDv7HxF4H0Qw20EMQCAKp8vPT3Jq7CZ1nha60TxT4m055LsP/Zxae0Q48wFuCCcn5BxgKB7+6sI+iNPuxf2eAcyxD5j6is7FDm5U89RUy2KR9I+ELw3/hbSrgklnt0JJPfFcb3Ga/8AnrTAP89aAD/PWgA/z1oAP89aAD/PWgA/z1oAP89aAD/PWgA/z1oAP89aAD/PWgA/z1oAP89aAPF/2p/C1v4g8CW1xPAk32O8Qvv5zG4KMp9QSy/lWlOVmB8B/FLx94W+EHhvUrTw/olnbeIwWt1ntrZFkTPBOQM9D+tdhBg/Bv4xL8Hfgvr+pSut34o1dNyrLg7ZHDLCjA+gLOw9iKAOU8i8ufAXhzxdcuGurm8ksbhlULuIyyMQP9lSPwoA9/8AhpcNJpqliTkUmB7j8D7ryfiZpAzjfvT80NYSKR9eKeB/jXOMX/PWgBRQAtABQAUAFABQAUAFABQAUAFABQAUAFABQAUAFABQAUAFABQAUAFABQAUAJQAUAFABQAUAFAAaACgAoAT/PWgBaACgAoAKACgA/z0oAKACgA/z0oAKAEJ4oA5PxP4gVibO3bcTxIy8/hWkYESPO/HGqweH/Dl7qNzu8q3QyPtHJwOg9ycfnXTHQk+Gbn9qPTtP+MWn+D7/SIv7H15Httd1C7DB0WVWEUcBDY2Llcsc5LnpihlHifhv4b6PpXxrYeE9Sj8R+DZprzTLhruJklsX2Ooiuo2UEDeFw+ArY65BqE7MD2zwj8P9K1fxnoE3w+1W003UJdOF3qdjEJHg02RQqmN2IypbJAQEj5MjgZq5PQD7c8AfAi8ubSK48QarcNAxyLS3HleYvq3UjPoMGueUrlnuWn2MGm2kNtbRLBBEgRI04CqBgAViBYpgFAC0AJQAUALQAlABQAtACUAFAC0AJQBwfxm+Klj8JvBF5rE5WS8I8qztj1mmPQfQdT7D6U4R5mJn5n6veX3ifXr7WNTna5vryVppZGPJZjn8u34V6UYqKM7XL2j6Lc6jeQ2tpA9xczMEjhjGWY+gFDlYXKfY/wq8K+F/gG9hY67qdivxC1uB5ILKSUeYsKjLiMegwdx74PYVxSm5ss/NDx3pPivwh+1BYeLdcd9UttS8SreWesQzCeG8hNwPlR1JGQhC7M5XpimkB1f7L3/AAknhT9oXxN4AtRc3vhhru9g1O0mgzDCq71EgOeGPyLx13AVadgPpr9pr9lc+Fv2Zbe70bzLNdBkFxPpe4GOSByEO/8AvOM5J9CcYIBqVK7A+cf2ffgra3Ot6drL621xp8ypcJZXdskuFDHKFm7qQVyPTNboD3TW9R0Txn8RP7Dt47bR/CfhUG91XVbRFhPnlCVhVwOAEJZuDwAO9MD0D4MeJrbxXpmnanZzPPp10xEEsq7XeIkgFh2PqKTA7edDDLIhGfLcjH0OP6Vmyke6fCqd5/BFgHOShkQH2DnH6VyyGdhSAP8APSgAoAKAD/PSgAoAKAD/AD0oAKACgA/z0oAKACgA/wA9KAOH+NVn9t+GutLgny41l/75YH+lFPcD8m/2lPDF7Z/EDVNQszO/miGfy4YiwAaPBLMOAMq1egZHjFzFIZrSLUVZ0iPmJaIdrSM2Mu5/hUAAepwcetAHsul2t3H8ANQkvU8i3N7FeWDOQA6xt5cm0egyOf8ACgD1T4O6qt9pUcikEFRSZR9B/CRtPbX/AARqdncSzS3aWd1OXGEBnB+VeP4eRjnp71jLYpH2OvQVyoYUwFFAC0AFABQAUAFABQAUAFABQAUAFABQAUAFABQAUAFABQAUAFABQAUAFABQAUAJQAUAFABQAUABoAKACgBP89KAFoAKACgAoAKACgAoAKACgBrNtGT0oA4XxR4reeZrSyciJTh5FP3j6D2rWMLE8xk2kTIu5h8x6Z7VumJu58tfth/tG6R4B8JT25P2qCVzAqRtj7bMoyYkYdFXILv26DkincVj4q8S+PvA/wARPg34V1Pxbon9m67eajd6ZL4h0fI+wGIRyRloST5gKzKCuQeCRzUORdg8V/DDxjoM/wANfFvhC9XX9W1oNZXuoaNJ5trdlGHlSTnGMPFgPv7oSec0gsfpN+zH+zLZeEppfE+o2iwy3T+fDZAYXccfvGB5PTC57YNZyn0Cx9SgYrIYtABQAUAFABQAUAFABQAUAFABQAUAFAFTUdTt9Js57u7lS3toELySyNhVUDJJpLUD87/jv8VLn4veL3ugWj0e1zHZW5PAXJy5H95uv5CvSpwSRDZwunaTNqF3Ba2sLz3MzKkcUalmZicAADqava4kfXfw5+FMXwM8E6j4s1KzTVfF8dlLPBZHpCVQsIxjPzEgAsBnnArilPmZR+Zngn4neI/i1+1Lo/ibxNqct1qmo3EtuSWISBXhlRY41z8qrvwAP5mrikhEX7IXiXxZZ/FnR/DmkvNr+gy6jE9/p91ZebawIjjdcjcSI2QZYOMHIA56U7WGfrb8KfgjpPh/X9V8WPpqWmo6tP8AaXRl+dmxgO/oepC9ixPXphKQ7HcfFTw+vij4a+J9JKhxd6dPEFYZyShx+uKiOjCx+NF/4z1bwh8P7Z9LleGe1v7qwcKcffCyR/qZR+Fdyd0SccPGOu/8INd6Lb3UkNncObjULqVyvnsx3FWY/eZyAdvJ2gDp0Yrn15+xZ4r+1fD9NPlZVn066ZBHnlUYLIhPpklqkZ9L61P/AMTloowpadJLkAuFARQpJ/N1A9zUMZ7N8HrgSeE9gGPLncYznrg/1rlkO53dIYUAFABQAUAFABQAUAFABQAUAFABQAUAZHizTTrPhvVbEKGNxayRqPUlTj9aI6MDxmz+GNl/wrhrXUbOM3t0gluRJGC4OOEP+6D+pruTuZHxz4t/ZzW88cx2OnWip9rnwG2jCKTkufQKMn8Kp6AeK/HnxFPr3jjxL4U0RWstC8M2lvbWUa/KJUjIErEd9zyB/cjNK47Gz+zf4qRoBayvkqxAzQxn1H+z5p+rWfibRPDxlE+mWupLJZnb86Qhy+wnPIUZAPpgdqwm7FI+8ByK5thi0wFFAC0AFABQAUAFABQAUAFABQAUAFABQAUAFABQAUAFABQAUAFABQAUAFABQAlABQAUAFABQAUABoASgAoAKACgAoAUUAFABQAUAFABQAhOBSA4rxp4q8otp9o/7w8SuO3+yPetoRuBy2n2rF92Bv5wPT1NdFjI8A/ar/an0f4O+GXghma6vrtWjht7dgJLs9CFPVIgeGk6nouTUy0LifIv7QHx58BfFj4cfC6w8YeG7vRY72wnv4tT0WYO1hL58kDARPgSoTFuYMQ3Iwai5djmbX9l3XtZ/Zl1m48Malpfje3/AOEjgu9Pm0ptx8oxGKZnRwDGw3RbkPICk9MZBH39+xH+ypqPwo+GGmWviydbmYTNfizA+VZH2nB4GVG0YHcknGMVnKVgPr2ONUQADAArPcB1AC0AJQAUALQAlABQAtACUAFAC0AJQAUAIxwKAPkf9qn4zNrVzL4O0Wcmyhcf2hOnSVxz5YPoO/vx2NdNKFwPnDT9JuNRvYrW1iae4mYIkaDJYnoBXXeyMj6AvF8N/sb/AA5/4TXxbCNR8X3iNHpunR8lZdudgPbGRvfsOmc1xynd2Gj5F1D9p/4n/Eb4afE7XX8TPpuoLe6dJbhZ/Kis0Z3DJET90YRRgdeSepqnHQZtfsg61p/xt+In9seK/C2nap4p0JBcxa5oytGbqRvkRZ4kAR3+YsrcH5eeBRJ2A++P2fP2aPDfwZ0qWS10yOC+upTcSljvfJYlQzd9ucADgYz1Oa53IpHt4AxUjGyIJI3RvusMH6UAfAWj/sfQaDofjybxFEs82parM1lbEkrDBHJIIpP95gxPsMe9dsdjNniOg/swWfibxs1vqEzW2j6erXN9NnCW9svL7RjALcAepI9DViOA8JfGxdM+O11rGjwJpXhrVbzyE0/ZtEUVuqxoBj/pkyHJ5OTmoKPtPxNaXfiDVfC+t6Y0d3Zx2s1hf2zPs862mRPmU+o2IccZGeaTA+l/gratB4TZimxHmOwZ7ABf5giuWQz0P/PWpKD/AD1oAP8APWgA/wA9aAD/AD1oAP8APWgA/wA9aAD/AD1oAP8APWgA/wA9aAD/AD1oAP8APWgA/wA9aAAmgDH1bV40RoY33OeCR0FAHNX0yzQMn94YrogzI8H+Lei+JIvC/iSbwrFGuptYyQx3bjJhZ/lBHuf6H3rZsaPhn4jaT/bu2++wGLxHeaZJpktlckqbi9RFzGx7SZQSIP40IIOVIpDOl/ZP/ZI+JfjzwbF4kii0/SlE/lbNQmeN5MAHIARumQDz1zWTkB+hvwK+Bd38O/8AiY6/eW99rGzZGttny4QevJALE+uBWLdyke0LwB/jWbGL/nrVAKKAFoAKACgAoAKACgAoAKACgAoAKACgAoAKACgAoAKACgAoAKACgAoAKACgBDQAUAFABQAUAFABQAUAFABQAUAFABQAUAFABQAUAIxwM0Ach408YLpUZsrRt15IMMw58sf41cYiZw9hasQ08xACjczyEBUHqTXRF2JPJvit+0v4J8CeLtE8H6lfSte6vPFAbO1XdNtdgFkm5GyMkjC/ebrjGMgHwp+0xdeBv2g/i5q8nh3xTH4d8SWUh0saZ4gQQWt40DtGDDOMqhJGMSbR7igCz4o/ZI+Kmu+AvhH4Ti0dYtQMN9FdjfFJ9kU3TyR73UscFJM/LkHPr0zbGfoz+yr+yZp/7PvgK00i6updVuvtDXsvnFSnnsqguQOCQEAA5Ax3PNRKVyj6IAx2rMBaACgAoAKACgAoAKACgAoAKACgAoAKAEbpmkgPFf2g/jD/AMIhpjaHo8gbW7tCJHX/AJdoyOv+8e3p19K3p07u5Mj5GtvD9zqVykMMMlxczNtVFGWdia7mlFEHu1gng/8AZR8PW3iDxhKt14pvOLaxiZDIinAbYGIHyjlmz7DmuWTdRjsfOf7YH7Q/hH4jeLpPBPifSPEEFlp3lXVrr2lxLKUeWINhomHKBWXIBzkGny8o1oVvhT+yLpXi74a6npdn4hbXrPxZPY3dm9vaGN0ghdyzSK/3GySOTgEd6TlYD74+CfwH8NfA/wAN2+laDpsVqE+ZnUAszEYLMcZZiBy3v2GAOZu5Z6XUpWACcUwM3VdVSyiZVYGY8ADtVJEnB+JIvtVnJv5yD+NdEdCWfKvxu+IFx8MD4csTpP2bw5q9639varMvSE740Ax0UZ3Z9j61dy0fNDad4VePxtNPpVxci3kSGzgtIxJfWV2wKfOoYYBIh+cEo6sCCRnA3Yk+2v2a/gLrd94B0e58S6rNEiwRDyLYAFjtG9dxz8oPAPfGaynMpH1ZpmnQaTp8FnbRiKCFdiIOwrllqMtVQCf56UALQAUAJ/npQAtABQAn+elAC0AFACf56UALQAUAYvivWRo2kvIrATynyos/3j3/AA6/hVJXEzz8asqgKrZA9a6IqxNxovJL2dLeAeZI5wFHeqbFY+V/+CkHj3XPC3wn0vQPDhY2F7qGzXL2EHKbQGVCw+6pbg5/u471ne7Hax418Nhqfx3+KXiz4e6hEXv0lsddsdVhwJViVopI0c/7IuDg9QMg5AFaSlZAfql4X8PweGdFtdOt1AjhHJAA3MTljgepJNcZZrf56UALQAUAAoAWgAoAKACgAoAKACgAoAKACgAoAKACgAoAKACgAoAKACgAoAKACgAoAKAENABQAlAC0AFABQAUAFABQAUAFABQAUAFABQAUAFIDlPGfjOPRITa2x83UJBwqnPl+596uMRXOBs7BjvvLuU5YgvI3JLHsPVj6Ct2xHMfE7x3onh3wjcXN/4m0rw8brzLTTZL25jES3ew7C7HhnBGdvRe/NTcR+Y9h8F/Hi/Grw1qV7pOp68t7rNrK+uW5N7BM3nKxdrhCydATktwBWgHpngP9i3x18ffjN4mudXtovDXhi01y58yaK0SN7lfPYja3cEY+fnOeAe2UpWGfqd4F+HGmeCrGJbdDNdiMRNdSjL7QAAq/wB1RgcCsm7jsdaBipGBpgFABQAUAFABQAUAFABQAUAFABQAUAFAHAfFn4oW/wAP9GZY9s2r3C4t4M9O29vYfqeKuEHNibsfJj2Go+JdWkubjzLy/vJNzEnczuTXdpBGd7n0P8PPhpa/DPR5NYvo4rnxBJEfJhf/AJZnGQo9+mT2rmlNzdilE/Nz4s+IPEnjH4h3epeLbiS51SZxGEdSBAmSBHGp+6o54HX8a3ikirnqE/7Jnij9oH9oXxG2p6hqWm+DLG6hj2I5RJVSNBsj9AcctzgHucCs5y5Q3P0R+HHw10X4a+HbTStGtI7aGCFIRsXnaowBk5OP/wBZ5JrmbuFjrahIYUwMvX9XGk2ZYY85ztQE9/X8KaVyWziY7lpXJZix7knNb8thLUsTLA1s1xeNsso+WJ/jP90UnIdj8o/i3+0/438X/GD4tQ39uljZ2WltBY+Hb+Mvbww29xFnMbYyXjMhLcHDcHgU0M93/Y8+Ddh8YPEPhb4jaSlzpOijRG0u9sJmMu9o5WUEyEfOABtUnsi/3ac5WCx+kNnaxWNtHbwIscMShERRgKo4ArleoE1FhhTAKACgAoAKACgAoAKACgAoAKACgBG6HHWgR4d8RvGn9qeJJLe3kDW9jmJcHIMn8Z/Dp+B9a3pq1yHqYcGoPJt2lmZjgKOSatsVit8cPF+r/BT4IeKfEGjWv2/xfHZF7a3CljDuYKWwAclQSx/3TUbmlz8tLPxn45vvCvgi70+6v9b1XU9X1aG5s5Ua5TUXl+ys0csZ4bcXbg+vGKpRtqG5+uX7P/wRs/Bck3im70q30/xDqVnbQSwwgYgSKJUCr6ABQB7AVjOVwse4CoGFABQAUAKKAFoAKACgAoAKACgAoAKACgAoAKACgAoAKACgAoAKACgAoAKACgAoAKACgBDQAUAJQAUALQAUAFABQAUAFABQAUAFABQAUAIeP/1UgOS8Y+NP7Fb7FZATai/RcAiMHuf8K1jG4HHWGkMX+2XrtLLI2cjlpG9F/wAa35bEHyp+238dfF3hewk8MeEVOlsVKXupx8vEhHMcHoTnDSdey460krgfKtzaqP2atAF/Yv4hv77xHeLaWEzPteQxxJv+X5iRkgAdS3PSnYD67/YY/ZG8UeD9K1DXPEso8PWusKg/sWwdxtiHOGJJwxOMkdBkZ54zcgPurSNFstEsI7KxtktbaMYWOMYH/wBc+9Yt3KReAwMCkMWgBKACgAoAKACgAoAKACgAoAKACgAoAKluwHK/EDx7aeBNKa4mPm3UmVgtweXb1PoB3NaRVwPlu7Go+L9ZfUdQka6urhuAB+QA7DpgV3RtFGV7nbeINc0H9mjwSfFGvxC88QXCEafpqY3vJjp7Y7t2Huawk3UdkWkfN3jv45+Pvip8F/EOqN4gm8Oy2+qwl7+0Vd9tbGOVzGNig7dyxj+8c8mq5OUTdjL/AGQJPHPxy8S3cep3K+MtBsEULq+t6TDGYLjIK7JNodiAC2D7eoolKwH6Q+FfC1l4X077NbqXlY75p35eZ+7E/wCcVzOXMUjbACjA4FSMWgCO4mW3haV2CIilmYngAUgPLNY12TXNSeXlYlysansv/wBfrXVCJmy5plr5yvLNIIrSMZklPH4D3pyBH53ftj/Hvxpq37VPgLwpGbnR/Bem6tZ/YEgDIl/I7xrJIzD75GSu3PHPHNQlc0Ob/Yn8AeK/jr4k8TaZ4k0ca94cjs7rTE1/UI8XEBkdVeJJvvOu3cSDnbgYxnBTdgP1Z+HXw+0f4Z+FNP8AD+iWiWtjZxrGqoMZwMZrK9wOnpALQAUAJ/nrQAtABQAn+etAC0AFACf560ALQAUAJ/nrQAtAHI/EnxZ/wi3huaSJ8Xs48q3XvuPU/gMmqgrsTPne2jZnLkknqSeST3NddrIhHZNPF8NfBOp+NdTtHvJLO0lubXT0OHk2IWzz/unH+RWTGfl9rvxv+IXxd0Dxd4mk1TUG1u71/TmtLbTZGAhBW42xxqD04Ue565qrWA/Sf9lT4CXOm+CvCniDxvo+nweJoInu/Kht0RknmxvkcKAokKpHu28ZBrGUikfTgUKMAYFZjHUAJ/nrQAtABQACgBaACgAoAKACgAoAKACgAoAKACgAoAKACgAoAKACgAoAKACgAoAKACgAoAQ0AFABQAUAFABQAUAFABQAUAFABQAUAFACEjHtSSA4rxf42NmzadpZE18Rh5BysP8A9etVETOOuG07wdpdzrOuXUcMKoZZZZ5MDA5LMT0X+dapEny/Yft5Q+NfG3iTS/D+mxjTrPSLu6ttUu0dXLQRs/3BjEZ4GANx79cUctgPDb34v+MfGfijRvDXjbSPDfia/wBTMMX2SyW4tNSVXwSMRttRgDn5147961UrAfeHwP8A2ZdF8J6PobXGnNHY6VLNc6ZZXjiaaN5Sd8kr45Yg4AGMDGeRXNOV2B9DKoUAAAAelZFj6ACgAoASgAoAKACgAoAKACgAoAKACgAoACcUAc7408Y2fhDSWuZz5k7AiG3H3pG/oOmTVKPMxN2PnHVLu/8AF+sPqOoEySyHCov3QOyqOwFdkfcRm9T1bwR4Kt/C9n/bWrri6UZhiIzsGOOPU1jKXMUfOn7Q/h+bx5rV7qciteQgERNGd6xKP4BjgY71cAON+D3w5k8efD/WfCkR8j+09XhgMmPuosZZ298cfiRTqSA+7Pht8OtH+F3hex0DQ7VbWxtU2gDG5j3ZvUk8k1xlnV0AFAAeBQB514+8TfaZ/wCy7VxsQ/vnHduy/h1Nawj1C9jI0fTBOjTXD+TapzJKe3sPet+bSxDVz4G/b7+OPjPVvij4f8CaZBcaV4Gt7q0mVrcN/wATGYupy7jg7TwE6gjJ5xWRYv7IPwM+I/jX44+K9daOey8B22uXsp/thvNSa6E77ZIUYZDKed4x0AyecPmsB+mngjwRpPgDw/baRo9olraQg8IoG4klmYgYGSST+NYS1A6GkAn+elAC0AFACf56UALQAUAJ/npQAtABQAn+elAC0AFACYoAZLPHAjvI4REBZmPQD1pWuB83eO/E0njLxG8yZ+xRDyrdeny92I9Sf6V1KNjNu5b0Sx0zw/ol74n8Qziy0HS4Wnkkk6OFBJ9yOKpysOKsfFnxs/av8WfEzwz421bQ7+50exgvtPtdLgsY185ELyZ3E/3gmSPp+L5b6ln1T+x38Br+z8EaR4k8b6FY6dr91IL54IbWOGSRwGEUkqqNoYK7HAA5bnpWEpX0A+skXaMAYH0rIB1ABQAn+elAC0AFAAKAFoAKACgAoAKACgAoAKACgAoAKACgAoAKACgAoAKACgAoAKACgAoAKACgBDQAUAJQAtABQAUAFABQAUAFABQAUAFADWfbnPakBwXijxpJcyvp2kMS3SW7U8J7D3961jG4rmBL9j8IWIuLrEl03zLG3XP95vzrVCPJvipFJ480OeGd2njc/NADuxxxuUdPYGrWgj5v+DngGz8E/GLWLyOONxBo9yxg2hjuYoqrj1OcAdzTlID7A/Z6/Zl0vwXq+o+O9ZgS88Xa05uC8ybjZowz5ak9+mT3x6AVzSlcZ9DAYGKzHYWgYUAFABQAhoAKACgAoAKACgAoAKACgAoAKAMXxR4os/DGkyXl03TCxxA/NIx6KB/nHWmlcR4Dqt1feMNVfUL9i2ThIxkrGvZV9vU9664Q5dWQ/eOu0qw0rwLoF14r8RMIrO0QuqMuST2AHck4AHfNKcufRFI+QG+PHjD4m/HnStUuZ5NK0qS4W0t9PjJxFAxK7SehY5BJx6Y6VagooS1PnefQ/EHw3utLutM1nxrod/rEzyWem2chYzqZdqO2WxlzyAQScj1pXSKsfqt+z/8ADnU/Cng/Tr3xLIJ/E09sn2hyiqyEgFgdoA3kgbiBziuWpLmCx63UDCgAoA5Lxx4uGjW32S2Ob+YYGD/qx/eP9KuMRXOC06ySKGa9vZhBbxKZJp34CjqfxNdV+VEvU+Iv2jP2p/E/i74+eFvh94bN54a8M6frdrHK0LFJr5vMXcXx0T5jhe/U1mik7D/2HP2fvHnxA8d6j431O6vtC8DSXNw0dlezSTjUJWZiJER8KoU8h8Z3AY6UpaDP000PQ7Pw9p0VlYwrDbxjgDqT3JPck5JJ6k1zt3A0KACgAoAKACgAoAKACgAoAKACgAoAKACgBCcUmgPJ/jF41aNDolk+HfBuXU8gYyE/HqfatqcOYTOI8JeG21i9CsRFbRLvnmboqiumTRmkeL/tFftQaNL4P8UadoekRa5o2mPHpLxS3Yt7eZJhIkjh8HJGxgODk89qleZqT/sNfAbw74q8LReMv7Ku10i+uo7yC01ZlnXzYDIiFGAAkXLs24jsB71lKQH3gqBcYwKwAWgAoAKACgAoAKAFFAC0AFABQAUAFABQAUAFABQAUAFABQAUAFABQAUAFABQAUAFABQAUAFABQAhoAKAEoAKAFoAKACgAoAKACgAoAKAGSOEUsTgAZJNIDgfEniibWpGsdNkZIAcSTrxv9h7fzraMbgY2r39j8PdCl1C9x5iLuSMDJB9SO59BV7En56/F74veOvGfxTsdW+2S6bpVleI1paRHGFDjLOf4mYcenYdyd0tBCfGXwlps3i/xd4s0afXtNtrF3glu7C+aCae/MhLxqucYUAksT3UAdaAPrj9jb4Sa8/gnSvE/jqW9u76cm5sbXVXEtzFGQNnmvgFjxuCnON3sK5pMD6rQADisEykOpjCgA/z0oAKACgBKACgAoAKACgAoAKACgAoAKAKWr6tb6LYz3t3KIreFdzMf6ep9qAPC9W1O98b6w13cq0UKZWKA9IU/wDij3P0HbnojDl1Ymdd4S8JRzyCecBbaIbiT6CrnPQhHkP7RfiOXxZLHYQsV0i2b91F2d8ffP64qIbjPBrLw6LDxDpl0kexo7qJy2PRxW8mJH1Z4f8AhdpPjb4oab4lvbNJY/DsAEBYZDXDAFSP9wc/VhXJKVjQ98UfKKzAdQAUAYfivxLH4csTJ9+4f5YovU+p9hQB5cqPcTTalqU2G5eSR+Ao6/59K7FGxB8i/E39sK58VfGqy8D+FoEj8OWSXX2i9njz580cLuJFHopTIzkH0p2uBj/sYeAfFH7Rfje58UeLoI9Y8P6S4a28Q6jpsMF412GGPKePBbau4HfkDI7isZOwH6ZaRo1noOnW9hYW6W1pboI44k6Ko7Vhe5ZdFAC0AFACf560ALQAUAJ/nrQAtABQAn+etAC0AFACf560ALQAlAHMePvF6eFdILJh76YFLeM92/vH2GQfy9auKuxHg1tZ3Osagp+ae6uH5ZurMe9dVuRGbZJ8c7ifQPhpqfhbQbxbbUriLbcXKsFZ3Y/6pCf4iAeBzWcdWW1Y+UvgF+z5dfFa81rwjrVrNa6dFqWnXF0Jo2UtChuGYLnuRgA9s1c9ECdz9OdA0Kw8N6LY6XplrHZ6fZxLDBBEMLGijAAFccmUaNACf560ALQAUAJ/nrQAtABQACgBaACgAoAKACgAoAKACgAoAKACgAoAKACgAoAKACgAoAKACgAoAKACgAoAQ0AFABQAUAFABQAUAFABQAUAFADXYBTk4780kgOH8Q6zJrUps7NytsOHkXjef8P51tFWExbWzt9AsGvJsKEGVBGee341ZJ5L8T2l1rSrmafJZhkL1CinED5g8QeGkneZinIPB9DXUthM+hPAvw3t/iZ4wSO7giOgaYyXlzCoH72dgHVSPQli59ce5rkqMtH1WiBAAAABwAK5xj6ACgAoAKACgAoASgAoAKACgAoAKACgAoAKAGsQBzxSYHkXjfV5vFuqpbW2X0y1k+QDpPKMgt9F5A7Z59K3pxsZs0dD8MbDHGV5PLn3rSUrjOn8URwWPhia2B2NKu1QDjJ/wrG12Uj5y8V634UmnkivdRso7hFbMct5FGeOOhcEc1qkM4KS+8J6rqlrbWGrWDyPIB5VvqdvI+c5+VA5ZjjsBVzVkZrc+zPh7pEmj+GYEmLGaYtcOG6rvO4L+AIFcjdzQ6WkAZxQBma7rUOiWZmkyzn5Y4x1dvSla4mea3CTandS6lqL84yD2VewArqgrEnzD8ZP2mvDran4g8PWrXOqJodp9pu7HTh81wfMRPLDk4+XzFYj9e1aJWA8a+CvgbR/jj8YrGXw6b60nht51vbPUrF4JUiljeIuHwUIG/1B9jSnKwH6f+AvBGlfDrwhpXhzRbVbTTNPhEMMajH1Y+5JJPuTXI9RnQ0igoAWgAoAT/PSgBaACgBP89KAFoAKAE/z0oAWgAoAT/PSgBaAKOrarbaRptxeXMnlwQruY4/Qe/aiKEzwzWbm68SapPqF2CjOcJFnIiTnCj39fcmuyCsZlm+1e0+EvgTUfGF/GHuERo7KDvI5BCgD3I69gDUz97Q0R+fHjWTVPiL4D8bX2umXWLtby21PyGlaNQ29kOMcgASDj0FarREn3p+w98JdQ+HPwW0q61xpm1jVIxd+TNK0v2WBsGOJSxJHy7SR2Jx2rkm7spH0UBgYrMYtACf56UALQAUAJ/npQAtABQACgBaACgAoAKACgAoAKACgAoAKACgAoAKACgAoAKACgAoAKACgAoAKACgAoAQ0AFACUALQAUAFABQAUAFABQAhoA5bxNqzzsbC1yS3Ekinp/s/41okAaPoyQgZ5xgse2aq4mcp4+8S2j6jDpBu44pDmRY94Dvt54HeqJPEfiR8S7zwnpMM11pF49vcXMdoskKRkqzttUkM47kfnVRQHiuofHFLrxfb+F9Q8PaxHqM92trG08Vlu3OwQbV3ljnjgDNbvRBa59/fDTwePCfhqGOVFF/cYnumC4+cjAX6KMAfSuCTuyjr6kYUAFABQAUAFABQAhoAKACgAoAKACgAoAKAA8UAcv4y1OUxLploxWe4Q+ZIp5ij6E+xPQfj6VSV2Iy9D8ORQYcRgKg2oAvSt76EtHU6darCGbbg9s1k9CrHzx8ePiVf2/jmys9OmYWGmnF3FHj9+WAypPsP1rWEbhseC3/wxuPip8Yr6f8AsO2s/D2jac+LmeISnUZJhmLY+B8u3LMOcFSPetNgucf+yd8ENU1r9pO2h1a0tINH0USX8scFkkW5gCsakgZzvZT9FNKrIVj9QkXaMdq4ih1MCvf3sVhayTzNtjjGT7+gHvTSuI46a1n1u8+03Ix2SIniMen+JrRKxN7nif7RPxCn0Hw9PYaPIFuZAVWVD9zIOX+vYVulcD4S8OeA4rDxFrLTr50V5pV2ZBIN2SoEoJPc7owfwrR7Afe37C37PsHwl+Hc3iK+ic+JfFO29uZJwTJHBy0MXPI4csR6t7VxTd2NH04BgVA7BQMKACgAoAKACgAoAKACgAoAKACgAoAKAA8UAeZeLtSbxHrJsoTnTrFh5nPEs/p7hc/mfatYIljNM8Oi+u4oSPlJ+dv9nvWjnbQmx5P+0raap4v1200awtmk03TQMRK3ytIV5b8AcfnTgVc8g+Efw0l1nx/NoF1ayx2l4kYn3REjYk6MwI9wCPxqpytoI/QK3iWCFY0UIiqFVQMAAdq4ykS0DCgAoAKACgAoAKACgBRQAtABQAUAFABQAUAFABQAUAFABQAUAFABQAUAFABQAUAFABQAUAFABQAUAIaACgBKACgBaACgAoAKACgAoAzNb1NrC32x4M78IPT1Y/T/AAoAx9J08Ab25YnOT1+prUDS1O6i0jRrm6kYJFDGzufQAZprcTPne7un1u+l1MhhJK+9c/wDsK2SJOQHw6u/GXxMXxDrOpteeHNOihntdFkkLRrfJuCybMYAUNu75O09qdrAW/h1+zjpes/tMxePrm1jcaZCbtGI5+0N8qE/7o3n8qzqSdikfYY4UVyJjHVQB/npQAUAFAB/npQAUAFACUAFABQAUAFABQAUAFAEN7dJZWks8pxHGu40Acrp1pLdTS3lwB59w+9h/dX+FfwFUhM34YQiAEcCquSTXM32awmlGAUUkE9Ki92WfG/xHtm0LxDNFqCSzXt3I0vmQkMNxOT1x612RVkJm78L7/UbLfpWpWk8FqP31tO6FQyk8jJ7g/p9KTJPZfg/4QtNO1fXtdjiVJr10gyPRQSf1b9KwqvUs9RrEApgcxczNreoZU5tLdiEHZ3HVvoOg98+lWhMr+JbtdN0t40yjuhy4/hUDk/yFaEI+NPjT4x03T0gmu2+0/bptkflwPOobJAQ7PYY61vEZyfwHfw78WPjFpWj2MU/mRxzPdQPayxIYdhVzlyccN0PUmoqSsB+kVvGsMKxooVFACgdAO36VyFIkoGFABQAtABQAn+etAC0AFACf560ALQAUAJ/nrQAtABQAn+etAHPeOfEL+HtEkkgIN7O3k2yEZy5HXHoBk/hQBw2gWkdlCkYYvsGS7HJdj1P4k10JWRB2mlsmn6Tdag4wAjMD7AZrPdgfCHxq+IHjbxPdS6j4TkNpZ2IvGvpEghmkJUoYz+8B+9k4A9DnpXTBAdV/wAE79T8T/ELXvE/iTX7pp7TT1SzhEtvBG5mcFmOY0XOFx1J+9WdUD7rFcxSFoGFACf560ALQAUAJ/nrQAtABQACgBaACgAoAKACgAoAKACgAoAKACgAoAKACgAoAKACgAoAKACgAoAKACgAoAQ0AFABQAUAFABQAUAFABQAyRgqlm6AZNAHNsv9oXbTOCAeFHov+eaANOFQigD8KsgxvHkEN/o66dOvmQ3cixugONy5BI4+lF7AeOfHLRbTQPDludIgTT5Q4CvbjY35jmuiLApeC/BF3beFH1+TVJpn8r99byqpDYI5BGMde9NsD1v4NvDc6Je3KEGV7kxyYBGNo4H6n8655u5SPQqzGFABQAUAFABQAUAFACUAFABQAUAFABQAUAFAHP68/wBsvbawGdn+ul9wD8o/Fhn8KaAtQoB7dqoTLBZRhc4JIoJKniWby9HkUHlyF/UVPUs+aPipZi+8f23y52n+tdK2A9x0vTEn8DtblAzfZ225AODg4xWbAf8AB28+1+GZPkUCO5dMg5J4U5P5/pWcwO87VIGR4gvHijS2gfbcXHygjqi/xN+XA9yKAE0+3WCBURNqKAFUegrUg4vxxdRz6dfzvKqRGQWqu5wAoyXP6U0B84eNvB/h/wAS+JNBmnlW4XT7lrm1jilDRmbYVBYDrjcSPQ4roewHS/sZ/s92Hw48eePvFMMIH2t47O2PcL/rJPzJT8q56m5Z9bViAUAFABQAtABQAn+elAC0AFACf56UALQAUAJ/npQAtABQAhOP/wBVIDzHxVcNreuSTD5ra0zDCc8Fv4z+Yx/wGt4LQDm5NaWC5MKnL7ttarYg7b4izyaJ8KNTeIEypYkADrnbz/WsOoz5P+GvgfxPHqbasukm60G7jMdxh1OB2JH+etdPNZCPon9lzwFZ+BPAupR2abUvtVnus98YVB/6BXLU3LPY/wDPSoAWgAoAT/PSgBaACgBP89KAFoAKAAUALQAUAFABQAUAFABQAUAFABQAUAFABQAUAFABQAUAFABQAUAFABQAUAFACGgAoASgBaACgAoAKACgBCcDNK4GbrNwFiSDOPNJBP8AsjrQrsCkssMSgmRM+m4Vai2A62vkuLvy43DBRk46VTTRC1MbxbdpHqdiZSVijbJIByKmzZVjy343ahFqNlbLA5lj3AnCnj68VotAsdp4a08TfDSeAAHfbN0H+z/9am2Fi38A28zwXM3OTeS/0rKQHpVSMKACgAoAKACgAoAKAENABQAUAFABQAUAFAATQB4VqX7TXw20LWdUj1LxLFHexXDQSRLBK5QIdoXIUjqCfxrZQYaFCT9s34TqxA8RuT7Wc3/xNWqbZEnYtaR+1p8M9Yv0WLxFtUAnMtrKoz/3zR7Jk8xvav8AGzwRruniOw8V6TJP1WKS5WNyfZWwTWbi7mlzhNX0mXWdai1YTxOpwSB0+oPStNbBc9e8O+IdMXT4oXvIo2UAFZDt7e9QwuVPg0Fh0/WbdG3rDqDgEdwVXBrKbGehsdozjPFIDnID9vvp71uUYmKIeir3/E8/lTsTcuatfjSdHu7o8CKJmGPXHFVcdjzvx5G1t4Os7d8+Y1lNLJk4yzJ3/M1SYjzT4BfD3R9X0O6Oo6dDcnzd8cjr88bA8FWHIP0rVzuI9l+CSGLwvdxtzJHqEyOc9xtH8sVjN3dyz0KswCgAoAKACgAoAKACgAoAKACgAoAKACgAoAzvEF8dO0i5nQbpQhWNR3c8KPzIpAcfc6cunaaIzlvLTk9ye+fqa2i7AeNxXDT+MLC25PmXCA/99Vu9EZ3Pcfimgl8E30WOGiYY9tprnW47mF8G7ZbbwpAqgA45UVT1A6T4dI1tYajaHAFrqE0ajGMKcOP/AEKs5alnW1IBQAUAFABQAUAFABQAUAKKAFoAKACgAoAKACgAoAKACgAoAKACgAoAKACgAoAKACgAoAKACgAoAKACgBDQAUAJQAUALQAUAFABQA1/umpWoH50/tw/GibUfiq+g2F/LDbaHCYGEEhUGZ8M+cHnHyj8DXZTiiWfLF54zvpXLHUbrJ/6bN/jXUkiblzw9431aGaZrbVr6F16vHcup6exoaRCYxP2mfiZ4f1Itp/jXU1iRvljuZBcIfbbKGFZOKNU7noXhv8A4KAeO9PxHrem6Trqd2MZt3P/AHwSv/jtLlRR6h4Z/wCCgXg67VI9Z8Paxosh+9LYus8Q/AMjfpUcoH1v+yb490b4h/D6/wBR0K4NzYjUpUDMhQg4VsEHoeRWNRWYHttZAFAB/npQAUAFAB/npQAUAFACUAFABQAUAFABQAUAcV8ZfHafDT4Z+I/EbsFextHeIHHMhGEH/fRFNAfjXqPiSS7meWWQu7kszE8kk5Jr042MLMzm1hRyG/StLpBZrc6LwNryvq6xb+WBApcyEdJ4vvs3CQk5wM8VFkakHh34g6/4bcPpOtXtgVPAhnbbn/d6fpUtJgen+Hv2sPGelFU1A2mtRD/nvCI5D/wJMfqKycQPr79j/wCLtv8AE+28SbbI6fdQSQu8PmB1IKkAg8enesKsbFnrXxj+INv8Lvhtr/iW5AcWNqzRRFseZKflRM+7ECso6gfEMv8AwUwv7GBIoPBVl+7AX5r1+3f7tdUYXM2Zmp/8FLdW1W1NrN4NsxE7LuCXjgkZBx932q/ZoLmj4k/4KFaD4jktrLWfDWoaUNux5rKVLhQpGCNp2n8s1PJYd7nf/CD9pjwVBbC20XXLCYytnyL6QwSjJ6YbH6ZpWA+kfgvqMeo6brUsaCJZNSeYIGzgOiHr3rnkWeiVABQAUAFAC0AFACf560ALQAUAJ/nrQAtABQAn+etAC0AJQB8y/t0/HvUfgj4J8PtocsEes6hfFojcRCVVjiXcx2ng8sn51rTjzEvQ+GNU/b++L9+jRHW9PjRh0TS4On5GulU0TcwdG/bA+IkOuWl8+qWjzRShwxsIv5bau1xH0Le/tqeOLvSkh1CHTNRt5UyT9nMTcjsVbHf0qeRIaOq+Hv7ZNnpqpBdJNpqn7ySIJoPzHzD8qXKUfUHwR+IFj8QU1m+sbq2uEeaNyLV9yqSm3nuCdvQ1ySKPUP8APWoAWgAoAT/PWgBaACgBP89aAFoAKAAUALQAUAFABQAUAFABQAUAFABQAUAFABQAUAFABQAUAFABQAUAFABQAUAFACGgAoAKACgAoAKACgAoAjlJEbEDJxwDQB+Afxi+IOpXfxJ8cyXNxJPqEuo3D+YD8rMJpA8i99vHfHQCu2OxmzmL/wAVTw6iwMj+Q1vkFeiNnqe9VcRf8K+MLlIUXyJy8sIDSvtweOvXP/66LlDLicvdBGOd2etJgemfs6/BwfH3xpf+HP7YXQ3tdOe/EzQmXfh1TbjIxy4JPpSA8n1XUU0fUGs5GWZxM0GYjlSQxGR6jjP40m7gfpH/AMEnfFfn6H8QPD7tjyLi1v4156OsiOfzjX86wmrFI/QMVkMWgAoAKACgAoAKACgBKACgAoAKACgAoAKAPk3/AIKaahdaZ+zRPLbElW1e0SaMHBlQ7/lz0HIU5PpVU9wPx0l8TTNZJCvmb4roPMxf/Vjzc7c9zzjA7V23IL+oa7LBrts6h3jMMiuqt0wynOO+KdwJPC/iy6sLszW1s9xsuJCGMqoMFs4wxz3pXA9R8S67c3emJqL/ALqYhSQrZ2/jVXA0PC+qWl7daGuoMVtb+4t7aadcAxiSQRs2DwSM0XuB2v7Q/hnT/gx4vu9NsbuW/tI7aO4TzSPMBZSdpI46rn6MKQHuX/BOjxrj4pyWIV449Z0pnCOMEMmHAP4bqwqgej/8FWvHd74S+Ceg2NsMQanqZEzc8+XGXVcD1Pf2rOBSPykm8ZyTLdFMHyohIoGcFsHI+ldKZDG23i4G4iyfk2BzhWJBz0wBTuM3tV1/7bewyYIjlwB2Oe1JgdJaeEtRl8BXHjBPJbRre/XTpSZB5iylN4+TrjH86QH3j/wSn+IK6rZ+MfD4uDLDmHUIASeOsbgA9Oi8VhU3LP0FrEAoAKACgBaACgBP89KAFoAKAE/z0oAWgAoAT/PSgBaAGv8AdNAH5Q/8FY/G97afGLQNLbK2tlo6y2+FJUGSVvMJx0+4OvYCt6Ttclo+I4/EZvL6dEfdCqgqcY3HJyfpwK35kTYp2/ilmhtHdyJWbDrsOSMHkD6gUJjPZfDvjyTVvCBZI5Fls0wTIhAYduvWrYHceANPk8ex3MdnPFFdW+ny6i0cmQGSMgMFPrkikB9Lf8E5viHazfE/XtChmDC7szuXHSSIhgP++Wb8q5ayLP0UrnSAWqAKAE/z0oAWgAoAT/PSgBaACgAFAC0AFABQAUAFABQAUAFABQAUAFABQAUAFABQAUAFABQAUAFABQAUAFABQAhoAKAEoAWgAoAKACgAoAa6/KaAPwu/bl+GU3wq/aY8X2LwtHperyy6jaSlQqtHOxkwPZWLr+FdMJXViGjwKPUAY7S73fLgxO2fp/VabdhWLGi6hLbTrCkJlVG2bvMAUDqP0xQncZ1WpQmW3WeLlo+eKtAVLfUL22uVvtJup7W7AZCbadoZFVhhxuBBwe4zigDOttLf7X9rucNOuViiU52erH+lRsB+rf8AwSz+GM/hz4YeIPFt5AI5dfuo4rZ2XDNBAGXOe6l2fH+7msqjuUj7eAwMVkMWgAoAKACgAoAKACgBDQAUAFABQAUAFABQB4t+2N8OZPij+zp410W2jMt6tmb22RV3M0sJEiqB6nbj8acXysD8Emlaa3v4irRbv3yhuvI/xU10p3IJbi/Lrp94D8mcNz0DDGfzxTbsA5L9rS/nVUkmEmJB5ePoe/qB+dK4HrOk3reIPCUkToY5BxsDAnHarAxdHmTVNNudBu2VJw5MIc4D+q/XPI/GqA6GfTLzUYo11iSZLWMDzJ7mQvJKFwAoLEk8DApgfbX/AATj8Iyar8R9W8Rvbqttpth5MZK/cklOAB6HYrfga56rKsewf8FNvhvc+PP2Z9Qv7K3NxdeHrlNSKr18kApMfoEcsfZc9qyiB+LFtcDz442UBmiMTgdiD0/nWyYmrjLe68prfCjzVBhcE7ckdDnHtViOoTzL3Ton2gSxnOFOelNAXRe6he6VPptrqLwafdTLPNaPMRGsoBUPs6E4JGaYH6N/8Epfh1Jp6+LPEvlMtjHHFpdvIwI3vnzJMeuPkz/vVz1Cz9D6xAKACgAoAKACgAoAKACgAoAKACgAoAKAA9DQB+Zf/BYj4dXDN4F8Z21uZopIrjR7t1GAh4khJPqcyj8KuIj814bpPttu4ON8OwgdjwQP0atEguQ+ekVvKhIEsE29VPGRnPGfYmrJPSfhxqL3MV9p8iCJZYiFw+7JrRO4Gv4a1C6s7o28F5JZalaCWJNsxi86GT7yE5GR3x3qgPs7/gmz4J8z4uXWqRbZotOs5pZrhOVMsmIwoPsu78jWNYs/TTtXKAUAFABQAUAFABQAUAFACigBaACgAoAKACgAoAKACgAoAKACgAoAKACgAoAKACgAoAKACgAoAKACgAoAQ0AFACUAFAC0AFABQAUAB5oA+Yf26P2SIP2nPh8jaZ5Fv4y0hHfTp5shZlOC0DEdmKjB7H2Jqk7CZ+M3jbwTq/gDxJd6B4k0y40fUkYxz2k8ZV0YdHA7qRg5GR71qnckwmiaykONsU+3L/KcOoP3lpoDqdD1FvIUSymYMMq23C49q1AtzabBO5kQgMeTigD2/wDZe/ZP8Q/tCeJbY29vLZ+EoJR/aGsuCECjkpESPnc8DjgZycYxWLYH7M+EfDen+DvDem6HpNutppmn26W1vAg4RFGAP069TWLKRsUhhQAf56UAFABQAf56UAFABQAlABQAUAFABQAUAFACMisCCMg9Qe9AH4pft/8A7Jt78DfibLr2kaeZfAurzNPbSRklbZ2yXt2GOMH5l55Bx2NaJkHyx9mQrNaH/UzgvCw6YPJA+mcj2rS9wIo4jGFljU/aoOJI8/fHsPfrQB2HgnxFPYXaeaIxZyfe2NuJz/KtEB1Os+GYdSZbq2I+bnK1oBp+EPBWpavq9rbRx3Op3cziK3tI8u8jnoFHr/npmkB+yn7M3wYj+CXwzs9HmEbaxct9r1CWPkGVgBtB7hQAo/E964Jyuyz03V9OtdY065sL2FLizuongmhkGVkRgVZSPQgkUAfkT+07/wAE0vG/gTxLqGpfDrTJPFHhe7m86C2t5N13ZHrtdTy6joCucjGQD10UgPmjWf2fPiNorsL/AMCeIIHb76HTZuD/AH1O3kfrWnMQTeGvhT43NwIYvCGvTTScbUsJ23fT5aakB7f8KP2Kvij8R9etYP8AhFbvQLJ2/fajq8JgjhXudp+Zj6ADk+nUDkB+tvwc+F2k/BvwFpXhXRkP2WzT55n+/PKeXkb3Y/l07Vzt3LO4pAFABQAUALQAUAJ/nrQAtABQAn+etAC0AFACf560ALQAUAeb/tB/BjS/j58Kta8G6oxh+2RE2t2oy1tcLzHKPXDYyO4JHegTPww+M37PnjT4EeIbvQvEui3EDpNm2vkjJt5+c7kkwAVPX155GRWqZJ5/Jbje1x5JePHlzxDG5COhP5/litQL/h559LvomaSVfKYGMNhVkUdMHv8AnTTsB65oXh0fEfVLWLS7Ke+1OYhRaWkRkkY+yr/Piq5gP1y/ZA+AjfAr4ci21GNBr+ouJ7zYciIAYSIH/ZGc47k+1ctSV2We81AC0AFACf560ALQAUAJ/nrQAtABQACgBaACgAoAKACgAoAKACgAoAKACgAoAKACgAoAKACgAoAKACgAoAKACgAoAQ0AFABQAUAFABQAUAFABQAUAcr45+F/hT4lWyW3ijw7p2uwxnKfbrdZGT/dY8r+FAHjWsf8E+PgZrBJbwYtoSd2LO7miAPsA3H4VXMBkRf8E1/gfFIz/wBh6iSxyQdTlx+h5/Gnz2A67w7+w/8ABfw1Mktv4HsriRDkG9d5xn1w7EfpS52B7Zpml2uj2UFnZWsNlaQKEigt0CRovYBRgAVIFygAoAKACgAoAKACgAoAKAEoAKACgAoAKACgAoAKAMjxT4U0nxtoV5ouu6dBqmlXaeXPaXKB0ce4P5+2KAPjTx1/wSa+GPiLUri+0DWNY8MtMxc2wKXMCHOfk3AOvP8AtGqTsB5lqv8AwR+u5pWe1+IFq5QfuZLjTmDfRsPg/hinzAZ1r/wSG8TQTZHjnSI0JywW1lYH3AJ4P41XtAO88Of8Ep2sWUX/AMR5li/iSz08foWf+lP2rA+m/gj+yf4H+BEr3uj20+pa1InlvqupuskwXuEAAVB9Bn3NYym2B7TQAUABFABigAxQAYoAKACgAoAKACgBaACgBP8APSgBaACgBP8APSgBaACgBP8APSgBaACgBP8APSgCG6tIr2J4p4kmifhkkUMp/A0Ac1qHwo8GatIZL3wlol1IwALTafCxI9yVoAoWfwL+HdhKJLfwJ4chfOcppcAOf++aAOq0zw/pujArp+nWtip4ItoVjB/75AoA0aAE/wA9KAFoAKAE/wA9KAFoAKAE/wA9KAFoAKAAUALQAUAFABQAUAFABQAUAFABQAUAFABQAUAFABQAUAFABQAUAFABQAUAFACGgAoASgBaACgAoAKACgAoAKACgAoAKACgAoAKACgAoAKACgAoAKACgAoAQ0AFABQAUAFABQAUAFABQAUAFABQAUAFABQAUAFABQAUAFABQAUAFABQAUAFABQAUAFABQAUAFABQAUAFABQAUAFABQAUAFABQAUAFABQAUAFABQAUAFABQAooAWgAoAKACgAoAKACgAoAKACgAoAKACgAoAKACgAoAKACgAoAKACgAoAKAENABQAlABQAtABQAUAFABQAUAFABQAUAFABQAf56UAFABQAf56UAFABQAf56UAFABQAlABQAUAFABQAUAFABQAUAFABQAUAFABQAUAFABQAUAFABQAUAFABQAUAFAC0AFACf560ALQAUAJ/nrQAtABQAn+etAC0AFACf560ALQAUAJ/nrQAtABQAn+etAC0AFACf560ALQAUAJ/nrQAtABQACgBaACgAoAKACgAoAKACgAoAKACgAoAKACgAoAKACgAoAKACgAoAKACgAoAQ0AFABQAUAFABQAUAFABQAUAFABQAUAFABQAUAFABQAUAFABQAUAFABQAlABQAUAFABQAUAFABQAUAFABQAUAFABQAUAFABQAUAFABQAUAFABQAUAFAC0AFACf56UALQAUAJ/npQAtABQAn+elAC0AFACf56UALQAUAJ/npQAtABQAn+elAC0AFACf56UALQAUAJ/npQAtABQACgBaACgAoAKACgAoAKACgAoAKACgAoAKACgAoAKACgAoAKACgAoAKACgAoAQ0AFACUALQAUAFABQAUAFABQAUAFABQAUAFABQAUAFABQAUAFABQAUAFACGgAoAKACgAoAKACgAoAKACgAoAKACgAoAKACgAoAKACgAoAKACgAoAKACgAoAKACgAoAKACgAoAKACgAoAKACgAoAKACgAoAKACgAoAKACgAoAKACgAoAKAFFAC0AFABQAUAFABQAUAFABQAUAFABQAUAFABQAUAFABQAUAFABQAUAFABQAhoAKAEoAKAFoAKACgAoAKACgAoAKACgAoAKAD/PSgAoAKAD/AD0oAKACgA/z0oAKACgBKACgAoAKACgAoAKACgAoAKACgAoAKACgAoAKACgAoAKACgAoAKACgAoAKAFoAKAE/wA9aAFoAKAE/wA9aAFoAKAE/wA9aAFoAKAE/wA9aAFoAKAE/wA9aAFoAKAE/wA9aAFoAKAE/wA9aAFoAKAE/wA9aAFoAKAAUALQAUAFABQAUAFABQAUAFABQAUAFABQAUAFABQAUAFABQAUAFABQAUAFACGgAoAKACgAoAKACgAoAKACgAoAKACgAoAKACgAoAKACgAoAKACgAoAKAEoAKACgAoAKACgAoAKACgAoAKACgAoAKACgAoAKACgAoAKACgAoAKACgAoAWgAoAT/PSgBaACgBP89KAFoAKAE/z0oAWgAoAT/PSgBaACgBP89KAFoAKAE/z0oAWgAoAT/PSgBaACgBP89KAFoAKAAUALQAUAFABQAUAFABQAUAFABQAUAFABQAUAFABQAUAFABQAUAFABQAUAFACGgAoASgBaACgAoAKACgAoAKACgAoAKACgAoAKACgAoAKACgAoAKACgAoAQ0AFABQAUAFABQAUAFABQAUAFABQAUAFABQAUAFABQAUAFABQAUAFABQAUAFABQAUAFABQAUAFABQAUAFABQAUAFABQAUAFABQAUAFABQAUAFABQAUAFABQAooAWgAoAKACgAoAKACgAoAKACgAoAKACgAoAKACgAoAKACgAoAKACgAoAKAENABQAlABQAtABQAUAFABQAUAFABQAUAFABQAf56UAFABQAf56UAFABQAf56UAFABQAlABQAUAFABQAUAFABQAUAFABQAUAFABQAUAFABQAUAFABQAUAFABQAUAFAC0AFACf560ALQAUAJ/nrQAtABQAn+etAC0AFACf560ALQAUAJ/nrQAtABQAn+etAC0AFACf560ALQAUAJ/nrQAtABQACgBaACgAoAKACgAoAKACgAoAKACgAoAKACgAoAKACgAoAKACgAoAKACgAoAQ0AFABQAUAFABQAUAFABQAUAFABQAUAFABQAUAFABQAUAFABQAUAFABQAlABQAUAFABQAUAFABQAUAFABQAUAFABQAUAFABQAUAFABQAUAFABQAUAFAC0AFACf56UALQAUAJ/npQAtABQAn+elAC0AFACf56UALQAUAJ/npQAtABQAn+elAC0AFACf56UALQAUAJ/npQAtABQACgBaACgAoAKACgAoAKACgAoAKACgAoAKACgAoAKACgAoAKACgAoAKACgAoAQ0AFACUALQAUAFABQAUAFABQAUAFABQAUAFABQAUAFABQAUAFABQAUAFACGgAoAKACgAoAKACgAoAKACgAoAKACgAoAKACgAoAKACgAoAKACgAoAKACgAoAKACgAoAKACgAoAKACgAoAKACgAoAKACgAoAKACgAoAKACgAoAKACgAoAKAFFAC0AFABQAUAFABQAUAFABQAUAFABQAUAFABQAUAFABQAUAFABQAUAFABQAhoAKAEoAKAFoAKACgAoAKACgAoAKACgAoAKAD/PSgAoAKAD/PSgAoAKAD/PSgAoAKAEoAKACgAoAKACgAoAKACgAoAKACgAoAKACgAoAKACgAoAKACgAoAKACgAoAWgAoAT/PWgBaACgBP89aAFoAKAE/z1oAWgAoAT/PWgBaACgBP89aAFoAKAE/z1oAWgAoAT/PWgBaACgBP89aAFoAKAAUALQAUAFABQAUAFABQAUAFABQAUAFAH/9k=;clipPath=inset(14.89% 13.33% 10.44% 11.33%);imageBorder=none;flipH=1;" vertex="1" parent="1">
          <mxGeometry x="352" y="538" width="215.23" height="160" as="geometry" />
        </mxCell>
        <mxCell id="F6PmQPHUVYmeMzWtfu4V-5" value="&lt;font style=&quot;font-size: 11px;&quot;&gt;&lt;b&gt;Hardware Interfaces&lt;br&gt;&lt;/b&gt;&lt;/font&gt;" style="rounded=1;whiteSpace=wrap;html=1;fillColor=#f8cecc;strokeColor=#b85450;" vertex="1" parent="1">
          <mxGeometry x="14" y="668" width="305" height="24" as="geometry" />
        </mxCell>
        <mxCell id="F6PmQPHUVYmeMzWtfu4V-7" value="&lt;b&gt;State Estimation&lt;br&gt;&lt;/b&gt;" style="rounded=1;whiteSpace=wrap;html=1;fillColor=#dae8fc;strokeColor=#6c8ebf;" vertex="1" parent="1">
          <mxGeometry x="14" y="632" width="94" height="29" as="geometry" />
        </mxCell>
        <mxCell id="F6PmQPHUVYmeMzWtfu4V-8" value="&lt;font style=&quot;font-size: 11px;&quot;&gt;&lt;b&gt;High Level Controllers and Perception&lt;br&gt;&lt;/b&gt;&lt;/font&gt;" style="rounded=1;whiteSpace=wrap;html=1;fillColor=#d5e8d4;strokeColor=#82b366;" vertex="1" parent="1">
          <mxGeometry x="14" y="600" width="305" height="26" as="geometry" />
        </mxCell>
        <mxCell id="F6PmQPHUVYmeMzWtfu4V-11" value="&lt;font style=&quot;font-size: 11px;&quot;&gt;&lt;b&gt;High-Level Planning and Decision Making&lt;br&gt;&lt;/b&gt;&lt;/font&gt;" style="rounded=1;whiteSpace=wrap;html=1;fillColor=#e1d5e7;strokeColor=#9673a6;" vertex="1" parent="1">
          <mxGeometry x="14" y="566" width="305" height="26" as="geometry" />
        </mxCell>
        <mxCell id="F6PmQPHUVYmeMzWtfu4V-14" value="" style="shape=image;verticalLabelPosition=bottom;labelBackgroundColor=default;verticalAlign=top;aspect=fixed;imageAspect=0;image=https://upload.wikimedia.org/wikipedia/commons/thumb/c/c3/Python-logo-notext.svg/1200px-Python-logo-notext.svg.png;clipPath=inset(0% 0% 10.67% 0%);" vertex="1" parent="1">
          <mxGeometry x="14" y="542" width="20" height="19.56" as="geometry" />
        </mxCell>
        <mxCell id="F6PmQPHUVYmeMzWtfu4V-15" value="&lt;b&gt;&lt;font style=&quot;font-size: 11px;&quot;&gt;B1Py&lt;/font&gt;&lt;/b&gt;" style="text;html=1;align=center;verticalAlign=middle;resizable=0;points=[];autosize=1;strokeColor=none;fillColor=none;" vertex="1" parent="1">
          <mxGeometry x="24" y="538" width="48" height="28" as="geometry" />
        </mxCell>
        <mxCell id="F6PmQPHUVYmeMzWtfu4V-19" value="&lt;font style=&quot;font-size: 11px;&quot;&gt;&lt;b&gt;Locomotion &lt;br&gt;Controller&lt;br&gt;&lt;/b&gt;&lt;/font&gt;" style="rounded=1;whiteSpace=wrap;html=1;fillColor=#dae8fc;strokeColor=#6c8ebf;" vertex="1" parent="1">
          <mxGeometry x="119.5" y="632" width="94" height="29" as="geometry" />
        </mxCell>
        <mxCell id="F6PmQPHUVYmeMzWtfu4V-20" value="&lt;b&gt;Calibration Pipelines&lt;br&gt;&lt;/b&gt;" style="rounded=1;whiteSpace=wrap;html=1;fillColor=#dae8fc;strokeColor=#6c8ebf;" vertex="1" parent="1">
          <mxGeometry x="225" y="632" width="94" height="29" as="geometry" />
        </mxCell>
      </root>
    </mxGraphModel>
  </diagram>
</mxfile>
